<?xml version="1.0" standalone="no"?>
<!DOCTYPE svg PUBLIC "-//W3C//DTD SVG 20010904//EN"
 "http://www.w3.org/TR/2001/REC-SVG-20010904/DTD/svg10.dtd">
<svg version="1.0" xmlns="http://www.w3.org/2000/svg"
 width="1024.000000pt" height="1024.000000pt" viewBox="0 0 1024.000000 1024.000000"
 preserveAspectRatio="xMidYMid meet">

<g transform="translate(0.000000,1024.000000) scale(0.100000,-0.100000)"
fill="#000000" stroke="none">
<path d="M0 5120 l0 -5120 5120 0 5120 0 0 5120 0 5120 -5120 0 -5120 0 0
-5120z m8740 4310 c0 -5 -5 -10 -11 -10 -5 0 -7 5 -4 10 3 6 8 10 11 10 2 0 4
-4 4 -10z m-242 -37 c15 -10 30 -21 33 -26 3 -4 14 -5 25 -1 18 6 18 6 -1 -8
-22 -16 -87 -30 -79 -16 3 4 14 8 25 8 12 0 19 5 17 13 -3 6 -9 12 -14 12 -5
0 -20 8 -34 18 -32 22 -8 22 28 0z m182 -30 c-1 -18 -18 -35 -24 -24 -4 6 -2
11 4 11 6 0 8 5 5 10 -3 6 -1 10 4 10 6 0 11 -3 11 -7z m-91 -44 c-13 -26 -19
-24 -19 6 0 17 4 23 15 19 11 -5 12 -11 4 -25z m46 1 c3 -6 -1 -7 -9 -4 -18 7
-21 14 -7 14 6 0 13 -4 16 -10z m-245 -20 c0 -5 -4 -10 -10 -10 -5 0 -10 5
-10 10 0 6 5 10 10 10 6 0 10 -4 10 -10z m110 0 c0 -5 -4 -10 -10 -10 -5 0
-10 5 -10 10 0 6 5 10 10 10 6 0 10 -4 10 -10z m140 -22 c0 -16 -20 -7 -30 12
-10 19 -10 20 9 8 12 -7 21 -16 21 -20z m-130 -17 c3 -2 -6 0 -20 4 -22 7 -23
6 -12 -7 10 -13 9 -17 -5 -22 -14 -6 -15 -9 -4 -15 9 -6 10 -11 2 -15 -6 -4
-11 -12 -11 -18 0 -7 5 -6 14 1 11 9 20 9 35 2 25 -14 31 -14 31 -1 0 6 -6 10
-14 10 -24 0 -36 23 -21 44 8 10 11 24 9 31 -3 7 5 14 21 17 21 5 25 2 20 -13
-7 -21 2 -24 24 -10 10 6 20 3 32 -12 10 -12 18 -16 19 -9 0 6 7 12 15 12 12
0 13 -3 3 -19 -11 -17 -14 -18 -32 -5 -27 19 -36 18 -36 -5 0 -11 8 -22 18
-24 9 -2 7 -3 -5 -2 -26 3 -27 1 -13 -25 7 -13 7 -21 0 -25 -5 -3 -10 3 -10
14 0 12 -4 21 -10 21 -5 0 -10 -7 -10 -15 0 -8 -6 -15 -12 -15 -7 0 -25 -7
-40 -14 -16 -8 -28 -11 -28 -7 0 13 -59 0 -72 -17 -11 -13 -10 -15 5 -9 30 11
18 -2 -15 -17 -21 -9 -27 -15 -15 -15 10 -1 15 -6 12 -11 -7 -11 -42 -9 -61 2
-6 4 -11 1 -11 -7 0 -14 19 -19 57 -17 12 0 11 -2 -2 -12 -10 -7 -18 -19 -18
-25 0 -6 10 -3 22 9 12 11 26 20 31 20 6 0 -3 -12 -18 -26 l-29 -26 28 -15
c22 -11 25 -17 16 -28 -14 -17 -40 -8 -40 14 0 14 -2 14 -10 1 -7 -11 -4 -20
11 -32 12 -10 16 -18 10 -18 -19 0 -12 -17 10 -23 14 -4 19 -1 16 7 -3 6 1 23
9 37 15 27 18 53 6 45 -4 -2 -14 -1 -22 5 -12 7 -11 9 5 9 15 0 17 2 6 9 -10
7 -10 10 -1 16 8 5 16 1 22 -9 8 -14 11 -14 24 -2 8 8 14 19 14 25 0 6 4 11 9
11 5 0 7 -10 4 -22 -4 -21 -3 -22 10 -5 8 9 18 17 23 17 4 0 3 -5 -4 -12 -15
-15 -16 -32 -1 -22 8 4 8 0 0 -15 -14 -25 -23 -28 -14 -5 5 13 2 15 -18 9 -32
-10 -36 -15 -20 -25 8 -4 11 -15 8 -24 -4 -9 -2 -16 2 -16 5 0 11 6 14 14 8
19 56 29 73 15 18 -15 18 -25 -1 -33 -8 -3 -14 0 -12 7 1 7 -4 12 -10 11 -41
-3 -46 -5 -40 -11 9 -9 -63 -74 -74 -67 -5 3 -14 2 -20 -2 -8 -4 -7 -9 2 -15
11 -7 10 -9 -5 -9 -13 0 -17 5 -13 19 3 14 1 18 -9 14 -8 -3 -14 -11 -14 -18
0 -13 -29 -29 -37 -21 -2 2 3 11 11 19 9 8 12 17 8 20 -4 2 -2 2 5 1 7 -2 15
1 18 5 9 16 -38 20 -59 5 -17 -12 -18 -14 -3 -14 23 0 21 -16 -3 -23 -11 -3
-20 -10 -20 -16 0 -6 6 -8 13 -5 8 3 20 -3 27 -13 12 -15 12 -16 0 -5 -21 19
-32 14 -20 -8 8 -15 17 -19 33 -14 21 6 21 5 3 -8 -17 -13 -21 -12 -46 11 -15
15 -25 33 -22 41 5 12 3 13 -9 3 -11 -9 -20 -8 -39 2 -25 14 -25 14 -2 15 23
0 30 14 12 25 -5 3 -10 1 -10 -6 0 -7 -3 -9 -7 -6 -3 4 -12 2 -20 -4 -23 -20
-15 12 9 32 l21 19 -26 0 c-15 0 -27 4 -27 8 0 16 -38 53 -44 44 -3 -6 1 -13
10 -16 8 -3 13 -10 10 -15 -3 -5 1 -11 9 -15 8 -3 15 -13 14 -23 0 -12 -2 -14
-6 -4 -4 11 -7 11 -13 0 -5 -8 -2 -18 8 -26 15 -13 14 -13 -5 -4 -30 15 -33
14 -33 -11 0 -17 -3 -19 -11 -11 -9 9 -8 18 5 37 19 30 20 36 5 36 -5 0 -7 -4
-4 -10 3 -5 3 -10 -2 -10 -20 1 -30 17 -28 45 1 17 3 40 3 53 1 13 6 21 11 18
18 -11 39 5 33 26 -3 11 1 24 9 29 11 7 9 9 -6 9 -17 0 -17 2 -5 10 8 5 23 7
33 4 9 -3 17 -1 17 5 0 6 7 11 15 11 8 0 15 -4 15 -10 0 -5 5 -10 10 -10 19 0
10 22 -11 27 -16 4 -17 8 -7 14 15 10 34 12 25 3 -3 -3 3 -16 14 -27 13 -15
22 -18 27 -11 4 7 26 10 49 9 35 -2 46 2 72 31 17 18 31 35 31 38 0 13 -48 5
-60 -9 -10 -12 -16 -13 -28 -3 -13 10 -14 10 -8 1 12 -21 -8 -15 -23 6 -8 11
-20 17 -28 14 -7 -3 -13 0 -13 6 0 6 7 11 15 11 8 0 15 7 15 15 0 8 7 15 16
15 13 0 14 -3 5 -13 -12 -15 -5 -27 16 -27 7 0 13 9 13 21 0 15 5 20 23 17 17
-2 21 1 18 17 -3 20 -3 20 20 0 22 -18 22 -18 9 -1 -12 15 -12 20 -2 23 6 3
12 11 12 19 0 8 4 14 9 14 14 0 19 -23 14 -56 l-5 -29 17 30 c10 19 12 31 6
33 -6 2 -11 10 -11 18 0 9 5 12 10 9 6 -3 10 -1 10 6 0 7 9 5 23 -7 12 -10 24
-21 27 -23z m278 1 c2 -7 -2 -10 -12 -6 -9 3 -16 11 -16 16 0 13 23 5 28 -10z
m-551 -91 c1 -19 -4 -31 -14 -35 -23 -9 -31 4 -9 16 15 8 16 12 5 19 -12 8
-12 11 1 19 8 5 15 10 15 10 0 0 1 -13 2 -29z m390 -20 c3 -20 1 -22 -12 -11
-18 15 -20 43 -3 38 6 -2 13 -15 15 -27z m83 19 c0 -5 -2 -10 -4 -10 -3 0 -8
5 -11 10 -3 6 -1 10 4 10 6 0 11 -4 11 -10z m-547 -27 c-16 -6 -17 -23 -3 -23
6 0 15 10 20 23 5 12 9 17 9 11 1 -18 -23 -59 -37 -61 -7 -2 -12 1 -12 7 0 5
-7 7 -15 4 -8 -4 -12 -10 -9 -15 3 -5 0 -9 -5 -9 -6 0 -11 4 -11 9 0 13 63 72
69 65 3 -4 0 -9 -6 -11z m504 2 c0 -8 -4 -12 -9 -9 -4 3 -8 9 -8 15 0 5 4 9 8
9 5 0 9 -7 9 -15z m-387 -4 c0 -6 -4 -13 -10 -16 -5 -3 -10 1 -10 9 0 9 5 16
10 16 6 0 10 -4 10 -9z m240 -15 c0 -11 -19 -15 -25 -6 -3 5 1 10 9 10 9 0 16
-2 16 -4z m161 -39 c-13 -13 -15 1 -4 30 7 17 8 17 11 -1 2 -10 -1 -23 -7 -29z
m-605 -24 c-7 -7 -26 7 -26 19 0 6 6 6 15 -2 9 -7 13 -15 11 -17z m24 -16 c0
-8 -7 -14 -15 -14 -11 0 -12 4 -4 14 6 7 13 13 15 13 2 0 4 -6 4 -13z m340
-13 c0 -8 -5 -12 -10 -9 -6 4 -8 11 -5 16 9 14 15 11 15 -7z m-390 -20 c0 -2
-11 -3 -24 -2 -14 1 -23 5 -20 9 4 7 44 0 44 -7z m4 -59 c-4 -8 -10 -12 -15
-9 -11 6 -2 24 11 24 5 0 7 -7 4 -15z m16 -39 c0 -3 -4 -8 -10 -11 -5 -3 -10
-1 -10 4 0 6 5 11 10 11 6 0 10 -2 10 -4z m-70 -26 c0 -5 -5 -10 -11 -10 -5 0
-7 5 -4 10 3 6 8 10 11 10 2 0 4 -4 4 -10z m70 -11 c0 -5 5 -7 10 -4 6 3 10 1
10 -4 0 -14 -1 -14 -41 4 -34 14 -34 14 -6 15 15 0 27 -5 27 -11z m436 -16
c-7 -7 -26 7 -26 19 0 6 6 6 15 -2 9 -7 13 -15 11 -17z m-436 -45 c0 -4 -6 -8
-12 -8 -7 0 -13 11 -13 25 0 23 1 24 13 8 6 -9 12 -20 12 -25z m-73 12 c-1
-11 -7 -20 -14 -20 -17 0 -17 27 0 33 6 3 13 6 14 6 1 1 1 -8 0 -19z m36 -15
c-7 -21 -13 -19 -13 6 0 11 4 18 10 14 5 -3 7 -12 3 -20z m-120 -13 c-3 -12
-9 -19 -14 -16 -5 3 -4 14 2 25 13 26 20 21 12 -9z m47 6 c0 -7 -4 -19 -9 -27
-6 -9 -8 -5 -8 13 0 14 3 26 8 26 5 0 9 -6 9 -12z m249 -2 c7 -8 8 -16 4 -19
-14 -8 -63 -5 -57 4 3 5 17 7 32 3 26 -5 26 -5 8 10 -11 9 -15 16 -9 16 6 0
16 -6 22 -14z m211 -11 c0 -2 -9 -3 -19 -2 -11 0 -18 5 -15 9 4 6 34 0 34 -7z
m-370 -15 c-8 -5 -12 -10 -10 -12 36 -23 45 -24 57 -9 14 18 17 3 4 -18 -7
-11 -16 -11 -50 5 -22 11 -41 23 -41 27 0 5 4 6 9 2 5 -3 12 -1 16 5 3 5 12
10 18 10 7 0 6 -4 -3 -10z m195 0 c3 -5 1 -10 -4 -10 -6 0 -11 5 -11 10 0 6 2
10 4 10 3 0 8 -4 11 -10z m-255 -20 c-7 -4 -10 -16 -6 -26 3 -11 1 -26 -5 -34
-9 -13 -10 -13 -8 0 3 29 -1 41 -12 34 -6 -3 -3 5 6 20 9 14 22 23 27 20 6 -4
6 -9 -2 -14z m-205 0 c3 -5 2 -10 -4 -10 -5 0 -13 5 -16 10 -3 6 -2 10 4 10 5
0 13 -4 16 -10z m505 -15 c11 -13 10 -14 -4 -9 -9 3 -16 10 -16 15 0 13 6 11
20 -6z m46 -13 c-17 -16 -18 -16 -5 5 7 12 15 20 18 17 3 -2 -3 -12 -13 -22z
m-283 -9 c12 -2 30 -4 39 -5 22 -3 15 -12 -27 -37 -32 -18 -35 -19 -36 -3 -1
9 -1 21 0 26 1 5 -6 6 -15 2 -12 -4 -15 -2 -10 9 3 8 1 15 -5 15 -6 0 -7 5 -4
10 5 8 12 7 22 -1 8 -7 24 -14 36 -16z m137 -19 c0 -2 -9 -4 -21 -4 -11 0 -18
4 -14 10 5 8 35 3 35 -6z m-236 -18 c-3 -9 -10 -13 -15 -10 -5 3 -3 11 4 19
15 16 19 13 11 -9z m296 15 c0 -6 -4 -13 -10 -16 -5 -3 -10 1 -10 9 0 9 5 16
10 16 6 0 10 -4 10 -9z m-355 -11 c3 -5 2 -10 -4 -10 -5 0 -13 5 -16 10 -3 6
-2 10 4 10 5 0 13 -4 16 -10z m238 -7 c-5 -13 -2 -15 16 -10 27 7 53 -1 45
-14 -3 -5 -17 -6 -31 -3 -22 6 -25 4 -19 -11 5 -15 4 -16 -9 -5 -10 8 -15 9
-15 1 0 -6 -5 -11 -11 -11 -5 0 -7 6 -4 13 4 6 0 4 -8 -6 -13 -16 -19 -17 -38
-7 -17 10 -19 14 -8 21 8 5 17 3 21 -4 6 -9 10 -9 16 -1 4 6 14 14 22 17 9 3
6 6 -10 7 -25 1 -25 1 5 15 17 7 31 14 32 14 1 1 0 -6 -4 -16z m-118 -13 c-3
-5 -12 -10 -18 -10 -7 0 -6 4 3 10 19 12 23 12 15 0z m-175 -25 c0 -13 10 -19
30 -17 3 0 14 4 25 8 19 7 19 7 3 -9 -9 -9 -28 -17 -41 -17 -14 0 -28 -6 -30
-12 -3 -7 -5 4 -4 24 2 36 17 56 17 23z m190 -18 c0 -7 -9 -13 -20 -14 -11 -1
-20 3 -20 8 0 6 4 8 9 4 5 -3 12 -1 16 5 9 14 15 13 15 -3z m-51 -14 c0 -12
-2 -13 -6 -5 -4 10 -8 10 -19 1 -16 -13 -30 -6 -19 10 11 18 45 13 44 -6z
m-179 -2 c0 -5 -9 -7 -20 -4 -11 3 -20 7 -20 9 0 2 9 4 20 4 11 0 20 -4 20 -9z
m334 -8 c4 -9 1 -21 -5 -27 -9 -8 -10 -8 -4 2 4 8 0 19 -11 27 -17 13 -17 14
-3 15 9 0 20 -8 23 -17z m-61 -10 c-5 -12 -2 -15 10 -10 18 7 33 -8 18 -18 -6
-3 -7 -13 -4 -22 4 -11 3 -14 -6 -9 -7 5 -10 15 -7 23 4 9 0 14 -12 12 -9 -1
-21 0 -27 1 -5 1 -19 3 -29 4 -24 1 -34 26 -11 26 10 0 13 -5 9 -12 -4 -6 3
-4 17 5 31 22 50 22 42 0z m-203 -13 c7 -14 7 -20 0 -20 -5 0 -10 7 -10 16 0
9 -5 12 -12 8 -7 -4 -8 -3 -4 4 10 16 14 15 26 -8z m36 11 c-3 -4 10 -7 29 -5
19 1 35 -2 35 -7 0 -7 -35 -14 -61 -11 -7 1 -5 -30 4 -45 4 -6 0 -14 -9 -17
-9 -4 -13 -2 -8 5 4 6 0 15 -7 20 -10 6 -10 9 -2 9 9 0 10 7 3 24 -9 24 -5 36
12 36 5 0 7 -4 4 -9z m-98 -13 c-2 -7 4 -12 13 -10 9 1 19 -4 22 -12 5 -12 1
-13 -24 -4 -27 9 -41 38 -19 38 6 0 9 -6 8 -12z m215 -30 c-2 -5 -14 -8 -26
-9 -21 0 -21 -1 -2 -9 15 -6 16 -9 4 -9 -20 -1 -29 8 -23 22 2 7 15 12 28 12
13 0 22 -3 19 -7z m-213 -17 c0 -5 12 -11 28 -13 26 -3 26 -3 4 -10 -13 -4
-28 -1 -36 7 -7 8 -16 11 -20 8 -3 -4 -6 -1 -6 5 0 7 7 12 15 12 8 0 15 -4 15
-9z m265 -20 c-3 -6 -14 -10 -23 -10 -15 1 -15 2 1 6 9 2 17 9 17 15 0 6 3 9
6 5 3 -3 3 -10 -1 -16z m139 -6 c-4 -8 -14 -15 -24 -15 -9 0 -39 -3 -66 -6
-40 -4 -46 -3 -30 7 10 6 38 11 62 11 24 -1 44 3 44 8 0 6 4 10 10 10 5 0 7
-7 4 -15z m-599 -5 c-3 -5 -12 -10 -18 -10 -7 0 -6 4 3 10 19 12 23 12 15 0z
m140 -8 c-3 -3 -11 0 -18 7 -9 10 -8 11 6 5 10 -3 15 -9 12 -12z m119 -17 c14
-18 15 -18 16 -2 0 9 5 17 11 17 6 0 9 -7 5 -15 -6 -17 9 -21 19 -4 4 6 13 8
21 5 9 -3 14 1 14 12 1 16 1 16 11 0 7 -13 15 -15 33 -8 13 5 34 6 47 2 17 -4
-2 -11 -66 -23 -167 -31 -270 -51 -348 -69 -52 -12 -77 -14 -74 -6 2 6 12 11
22 11 10 0 20 6 23 13 3 9 15 11 38 6 26 -5 40 -2 56 12 12 11 18 13 14 7 -8
-15 -5 -16 18 -7 12 4 13 11 6 24 -9 17 -4 30 11 30 4 0 6 -7 5 -16 -1 -11 8
-17 27 -20 24 -2 27 0 16 12 -10 12 -9 13 5 8 9 -3 16 -10 16 -14 0 -4 11 -5
25 -2 31 5 27 28 -4 24 -11 -2 -27 3 -35 11 -12 12 -9 14 20 13 21 -1 39 -9
48 -21z m-274 -25 c0 -5 -4 -10 -10 -10 -5 0 -10 -8 -11 -17 0 -11 -2 -13 -6
-5 -3 7 -2 19 1 27 6 17 26 20 26 5z m86 -15 c-20 -15 -36 -19 -36 -10 0 5 38
23 50 24 3 0 -4 -6 -14 -14z m298 -10 c-4 -8 -7 -15 -9 -15 -2 0 -5 7 -9 15
-3 9 0 15 9 15 9 0 12 -6 9 -15z m-49 -5 c-27 -12 -35 -12 -35 0 0 6 12 10 28
9 24 0 25 -1 7 -9z m-65 -15 c-9 -11 -9 -15 -1 -15 7 0 22 -11 34 -23 12 -13
28 -22 35 -20 17 6 15 -4 -2 -10 -8 -3 -22 2 -33 12 -10 10 -32 26 -47 37
l-29 18 24 7 c13 4 26 7 28 8 2 1 -2 -6 -9 -14z m170 5 c0 -5 -5 -10 -11 -10
-5 0 -7 5 -4 10 3 6 8 10 11 10 2 0 4 -4 4 -10z m-255 -20 c-3 -5 -25 -9 -48
-9 l-42 2 40 7 c22 4 44 8 48 9 5 0 5 -3 2 -9z m205 -10 c-8 -5 -19 -10 -25
-10 -5 0 -3 5 5 10 8 5 20 10 25 10 6 0 3 -5 -5 -10z m-315 -7 c-11 -2 -32 -8
-47 -13 -16 -5 -28 -5 -28 0 0 9 31 17 70 17 19 1 20 0 5 -4z m265 -3 c0 -5
-2 -10 -4 -10 -3 0 -8 5 -11 10 -3 6 -1 10 4 10 6 0 11 -4 11 -10z m-427 -7
c-7 -2 -19 -2 -25 0 -7 3 -2 5 12 5 14 0 19 -2 13 -5z m14 -27 c-15 -7 -25
-15 -22 -18 4 -3 2 -9 -4 -13 -7 -3 -11 2 -11 14 0 12 8 21 23 24 39 8 43 6
14 -7z m242 -7 c17 -6 31 -15 31 -20 0 -5 -2 -9 -4 -9 -2 0 -13 -3 -23 -6 -15
-5 -15 -4 -3 5 8 5 11 14 6 18 -7 8 -36 -23 -36 -38 0 -4 9 -11 20 -14 11 -3
20 -11 20 -16 0 -5 -11 -2 -25 7 -20 13 -28 14 -40 4 -8 -7 -15 -9 -15 -5 0 4
10 15 23 26 12 10 16 18 10 19 -7 0 -13 4 -13 10 0 5 8 6 18 3 15 -6 15 -5 3
10 -16 20 -14 20 28 6z m-294 -10 c-5 -6 -55 0 -55 7 0 3 13 3 29 2 16 -1 28
-5 26 -9z m357 4 c-6 -2 -10 -9 -6 -14 3 -5 0 -9 -5 -9 -12 0 -14 13 -4 23 3
4 11 7 17 6 6 0 5 -3 -2 -6z m158 3 c0 -3 -4 -8 -10 -11 -5 -3 -10 -1 -10 4 0
6 5 11 10 11 6 0 10 -2 10 -4z m-405 -56 c-2 -11 -1 -19 3 -19 19 3 23 -2 12
-16 -11 -13 -10 -15 6 -9 18 5 18 5 -1 -10 -18 -15 -20 -15 -29 1 -6 10 -9 30
-7 45 2 19 -3 28 -18 33 -12 3 -19 11 -16 16 10 16 54 -21 50 -41z m80 37 c13
4 16 3 11 -5 -11 -18 -43 -15 -50 4 -5 14 -4 15 8 5 7 -6 22 -8 31 -4z m45
-22 c0 -5 -5 -3 -10 5 -5 8 -10 20 -10 25 0 6 5 3 10 -5 5 -8 10 -19 10 -25z
m-290 -11 c-9 -10 -10 -18 -3 -22 5 -4 13 -14 17 -22 3 -8 4 -3 1 12 -4 22 -2
25 15 21 17 -5 18 -8 8 -21 -10 -12 -10 -14 0 -8 6 4 12 3 12 -3 0 -5 -8 -15
-17 -20 -16 -9 -15 -10 8 -11 34 0 39 6 29 39 -6 23 -5 28 9 27 10 -1 15 6 14
19 -1 11 0 14 3 8 3 -7 14 -13 25 -13 16 0 18 -2 7 -14 -7 -8 -16 -12 -20 -9
-5 2 -8 -1 -8 -7 0 -6 -6 -8 -12 -4 -8 4 -10 3 -5 -2 5 -5 13 -10 18 -10 5 -1
14 -2 19 -3 6 0 10 -6 10 -12 0 -6 -8 -8 -18 -5 -14 5 -18 0 -20 -25 -2 -25 1
-30 13 -25 8 3 15 2 15 -3 0 -4 10 -13 23 -19 21 -10 20 -11 -8 -9 -16 1 -37
11 -47 22 -9 11 -20 17 -24 12 -4 -4 2 -16 14 -27 27 -25 27 -30 3 -74 l-20
-34 22 -16 c22 -16 22 -16 -4 -5 -20 8 -26 18 -25 39 1 15 4 26 9 23 4 -2 7 1
7 7 0 16 -43 30 -52 16 -5 -7 -8 -5 -8 7 0 21 7 21 44 2 31 -16 53 -10 23 6
-9 6 -17 17 -17 26 0 9 -5 13 -15 9 -42 -17 -47 -16 -17 4 37 25 41 40 12 40
-11 0 -20 -7 -20 -15 0 -8 -4 -15 -10 -15 -5 0 -7 7 -4 15 4 9 0 15 -9 15 -10
0 -13 -7 -10 -20 6 -23 -12 -27 -21 -5 -3 9 3 20 14 27 11 7 20 20 19 28 0 10
-2 11 -6 2 -2 -6 -8 -10 -13 -7 -5 3 -18 -8 -30 -25 -12 -16 -19 -30 -15 -30
3 0 3 -5 -1 -11 -4 -8 -9 -7 -14 2 -5 7 -2 18 5 26 8 7 12 21 9 31 -5 14 -4
15 5 2 8 -12 11 -8 12 20 1 19 3 27 6 18 2 -10 10 -15 19 -11 7 3 11 9 8 14
-6 10 15 53 23 45 3 -3 0 -13 -7 -22z m60 16 c0 -5 -5 -10 -11 -10 -5 0 -7 5
-4 10 3 6 8 10 11 10 2 0 4 -4 4 -10z m140 -10 c0 -5 -2 -10 -4 -10 -3 0 -8 5
-11 10 -3 6 -1 10 4 10 6 0 11 -4 11 -10z m65 -20 c0 -16 -5 -30 -12 -30 -6 0
-9 10 -7 23 2 12 2 16 -2 9 -3 -6 -10 -9 -16 -6 -6 4 -1 12 13 20 13 7 24 13
24 14 1 0 1 -13 0 -30z m160 20 c-3 -5 -10 -10 -16 -10 -5 0 -9 5 -9 10 0 6 7
10 16 10 8 0 12 -4 9 -10z m-167 -83 c4 1 5 -8 4 -20 -3 -18 -1 -20 9 -9 7 6
17 12 23 12 11 0 -24 -29 -36 -30 -4 0 -8 10 -10 23 -4 30 -48 38 -48 8 0 -11
5 -23 10 -26 6 -3 10 1 10 10 0 9 5 13 10 10 19 -12 -9 -36 -29 -26 -26 15
-24 50 4 57 22 5 23 8 10 21 -8 8 -15 19 -15 26 0 6 11 -5 25 -24 14 -19 29
-33 33 -32z m64 38 c0 -5 -5 -11 -10 -13 -5 -1 -9 4 -9 13 0 9 4 14 9 13 5 -2
10 -8 10 -13z m-166 -36 c3 -6 1 -16 -6 -22 -10 -9 -14 -9 -17 1 -3 6 -10 9
-16 5 -7 -4 -6 1 2 10 16 20 27 22 37 6z m-256 -9 c0 -5 -2 -10 -4 -10 -3 0
-8 5 -11 10 -3 6 -1 10 4 10 6 0 11 -4 11 -10z m460 6 c0 -2 -7 -7 -16 -10 -8
-3 -12 -2 -9 4 6 10 25 14 25 6z m-580 -26 c0 -5 -5 -10 -11 -10 -5 0 -7 5 -4
10 3 6 8 10 11 10 2 0 4 -4 4 -10z m90 -3 c0 -8 -7 -14 -15 -14 -25 0 -17 17
13 26 1 1 2 -5 2 -12z m18 -17 c-7 -11 -16 -21 -20 -21 -20 -3 -24 -5 -35 -12
-7 -5 -13 -4 -13 1 0 6 14 15 30 21 17 5 30 15 30 20 0 6 5 11 10 11 6 0 5 -8
-2 -20z m68 -5 c-4 -10 1 -15 14 -15 11 0 20 -5 20 -11 0 -5 -5 -7 -11 -3 -6
3 -15 0 -20 -7 -13 -21 -11 -35 3 -21 17 17 38 15 38 -3 0 -9 -6 -12 -17 -8
-13 5 -15 2 -10 -11 4 -10 3 -15 -3 -11 -6 3 -10 2 -10 -4 0 -5 6 -11 13 -14
6 -2 9 -7 6 -11 -4 -4 -13 0 -22 8 -13 14 -15 40 -8 119 1 4 4 7 7 7 3 0 4 -7
0 -15z m-216 -20 c0 -8 -2 -15 -4 -15 -2 0 -6 7 -10 15 -3 8 -1 15 4 15 6 0
10 -7 10 -15z m433 -11 c-27 -20 -39 -17 -17 5 10 10 23 16 27 14 5 -3 0 -11
-10 -19z m-377 -1 c7 -10 13 -22 13 -28 0 -5 -4 -2 -10 8 -5 9 -17 17 -25 17
-8 0 -12 5 -9 10 9 14 16 12 31 -7z m124 2 c-7 -9 -15 -13 -19 -10 -3 3 1 10
9 15 21 14 24 12 10 -5z m340 -8 c-14 -8 -27 -12 -30 -10 -7 6 23 23 40 23 8
0 4 -6 -10 -13z m-366 -24 c4 -9 1 -21 -5 -27 -9 -8 -10 -7 -6 7 4 9 2 17 -3
17 -6 0 -10 5 -10 10 0 16 17 11 24 -7z m36 -8 c0 -8 -4 -15 -8 -15 -5 0 -9 7
-9 15 0 8 4 15 9 15 4 0 8 -7 8 -15z m230 5 c0 -5 -9 -10 -19 -10 -12 0 -21
-10 -26 -27 -5 -20 -9 -23 -15 -13 -10 16 8 48 30 54 26 7 30 6 30 -4z m-410
-20 c0 -5 -2 -10 -4 -10 -3 0 -8 5 -11 10 -3 6 -1 10 4 10 6 0 11 -4 11 -10z
m285 0 c3 -5 1 -10 -4 -10 -6 0 -11 5 -11 10 0 6 2 10 4 10 3 0 8 -4 11 -10z
m175 -6 c0 -2 -7 -4 -15 -4 -8 0 -15 4 -15 10 0 5 7 7 15 4 8 -4 15 -8 15 -10z
m-510 -25 c-7 -11 -14 -19 -16 -16 -7 7 7 37 17 37 6 0 5 -9 -1 -21z m-102
-24 c-3 -3 -9 2 -12 12 -6 14 -5 15 5 6 7 -7 10 -15 7 -18z m147 15 c3 -5 1
-10 -4 -10 -6 0 -11 5 -11 10 0 6 2 10 4 10 3 0 8 -4 11 -10z m69 -15 c-29
-22 -40 -18 -14 5 13 11 26 18 28 15 3 -3 -3 -12 -14 -20z m-531 -11 c138 -35
349 -150 492 -267 125 -103 288 -278 396 -427 58 -80 34 -64 -32 21 -24 31
-28 33 -45 19 -15 -11 -16 -11 -6 0 25 29 12 43 -15 16 -14 -15 -32 -25 -39
-22 -8 3 -16 1 -19 -5 -4 -5 -9 -7 -13 -5 -4 2 -13 -2 -20 -10 -11 -12 -10
-14 5 -15 11 0 13 -3 5 -6 -10 -4 -10 -8 -1 -19 6 -8 15 -11 20 -8 5 3 6 -2 3
-11 -4 -9 -10 -13 -14 -8 -4 4 -36 42 -70 83 -257 308 -595 515 -906 555 -45
6 -145 -6 -192 -22 -24 -8 96 104 132 123 65 36 200 39 319 8z m847 16 c0 -5
-5 -10 -11 -10 -5 0 -7 5 -4 10 3 6 8 10 11 10 2 0 4 -4 4 -10z m64 2 c3 -5
-1 -9 -9 -9 -8 0 -12 4 -9 9 3 4 7 8 9 8 2 0 6 -4 9 -8z m-270 -17 c20 -11 33
-12 40 -5 16 16 23 12 28 -13 4 -20 1 -23 -26 -23 -17 0 -42 -3 -56 -7 -22 -5
-22 -5 3 5 29 13 39 35 10 24 -10 -4 -14 -4 -10 0 4 5 -3 14 -15 21 -33 18 -9
16 26 -2z m121 -9 c-11 -8 -26 -11 -35 -8 -12 5 -11 7 5 10 11 2 24 8 29 13 5
5 12 6 15 4 2 -3 -4 -11 -14 -19z m-291 -8 c-4 -7 -19 -25 -32 -39 -33 -33
-34 -63 -6 -90 12 -12 20 -27 17 -35 -6 -17 -39 -18 -49 -2 -5 7 -2 9 8 6 8
-4 21 -2 29 3 11 7 11 9 -3 9 -10 0 -18 7 -18 16 0 9 -6 14 -12 12 -7 -3 -13
-10 -13 -15 0 -6 -3 -15 -7 -19 -5 -4 -8 -1 -8 7 0 8 5 20 12 27 9 9 8 12 -5
12 -9 0 -17 4 -17 9 0 5 9 7 20 4 11 -3 20 0 20 6 0 6 -8 11 -17 12 -14 0 -13
2 5 9 12 5 22 16 22 25 0 8 6 15 14 15 8 0 18 9 21 20 3 11 11 20 16 20 6 0 7
-6 3 -12z m336 8 c0 -3 -4 -8 -10 -11 -5 -3 -10 -1 -10 4 0 6 5 11 10 11 6 0
10 -2 10 -4z m40 -6 c0 -5 -8 -10 -17 -10 -15 0 -16 2 -3 10 19 12 20 12 20 0z
m-264 -19 c-14 -13 -18 -13 -31 -1 -12 13 -10 15 16 16 28 1 29 0 15 -15z
m-46 -35 c0 -11 9 -16 28 -16 27 -1 27 -1 -16 -40 -24 -22 -39 -40 -33 -40 5
0 13 5 16 10 10 16 62 12 62 -5 0 -8 -4 -15 -9 -15 -4 0 -8 5 -8 10 0 6 -9 10
-21 10 -16 0 -19 -4 -14 -22 6 -19 5 -21 -6 -10 -18 16 -29 15 -29 -4 0 -8 5
-12 10 -9 6 3 10 1 10 -4 0 -13 -20 -14 -40 -1 -9 6 -19 5 -29 -3 -12 -10 -12
-9 0 11 8 12 22 22 32 22 10 0 16 4 12 10 -8 13 16 49 30 44 7 -3 17 1 24 9 9
12 7 16 -9 20 -14 3 -26 -3 -40 -20 -13 -17 -20 -21 -20 -11 0 9 10 23 23 31
12 9 17 16 10 16 -6 1 -15 -3 -18 -9 -3 -5 -11 -10 -16 -10 -12 0 0 52 14 62
13 8 37 -16 37 -36z m191 1 c-10 -9 -11 -8 -5 6 3 10 9 15 12 12 3 -3 0 -11
-7 -18z m-161 9 c0 -3 -4 -8 -10 -11 -5 -3 -10 -1 -10 4 0 6 5 11 10 11 6 0
10 -2 10 -4z m-105 -25 c3 -5 1 -12 -5 -16 -5 -3 -10 -1 -10 5 0 6 -5 8 -12 4
-7 -4 -8 -3 -4 4 9 14 23 15 31 3z m165 -5 c0 -11 -19 -15 -25 -6 -3 5 1 10 9
10 9 0 16 -2 16 -4z m-170 -30 c0 -11 -19 -15 -25 -6 -3 5 1 10 9 10 9 0 16
-2 16 -4z m160 -26 c0 -6 -9 -5 -20 2 -11 7 -20 16 -20 21 0 4 9 3 20 -3 11
-6 20 -15 20 -20z m-260 5 c20 -24 6 -28 -15 -5 -10 11 -13 20 -8 20 6 0 16
-7 23 -15z m130 -16 c0 -4 -7 -6 -15 -3 -8 4 -15 10 -15 15 0 4 7 6 15 3 8 -4
15 -10 15 -15z m197 -6 c0 -16 -2 -22 -4 -15 -3 6 -12 12 -21 12 -13 0 -12 3
4 15 10 8 20 15 20 15 1 0 1 -12 1 -27z m-50 -8 c0 -8 -4 -15 -9 -15 -10 0
-11 14 -1 23 9 10 10 9 10 -8z m-832 -14 c95 -23 211 -64 279 -98 l50 -25 -29
30 c-15 17 -33 29 -39 28 -6 -2 -7 -1 -2 2 4 2 2 8 -5 13 -7 4 -11 11 -7 14 3
3 12 -1 21 -9 8 -8 17 -13 20 -10 15 15 290 -167 342 -226 l20 -23 -23 12
c-17 9 -27 10 -37 1 -10 -8 -16 -7 -23 7 -6 10 -13 15 -17 12 -3 -4 32 -44 78
-90 112 -113 232 -265 321 -406 40 -65 23 -51 -25 19 -23 35 -49 69 -56 76 -7
7 -13 18 -13 23 0 5 -5 9 -11 9 -5 0 -7 -4 -4 -10 3 -5 -1 -10 -9 -10 -8 0
-18 -5 -22 -12 -5 -8 -2 -9 9 -5 10 4 16 2 14 -6 -1 -7 6 -11 15 -11 10 1 15
-2 12 -7 -8 -13 -32 -11 -37 4 -4 8 -6 6 -6 -4 -1 -9 -7 -16 -13 -16 -7 0 -22
-4 -32 -9 -13 -5 -17 -4 -13 3 7 12 -17 12 -28 1 -9 -9 52 -21 67 -13 7 4 2
-3 -12 -14 -25 -21 -45 -28 -36 -13 3 5 -1 9 -9 9 -18 0 -20 -23 -2 -30 7 -3
4 -6 -6 -6 -10 -1 -16 -5 -13 -10 3 -5 -1 -14 -9 -21 -11 -9 -12 -16 -5 -25 7
-8 5 -12 -5 -12 -8 0 -12 4 -9 9 3 4 -4 8 -16 8 -12 0 -19 -4 -16 -9 19 -29
-30 -58 -52 -31 -10 13 -11 12 -5 -4 4 -13 3 -17 -5 -12 -7 4 -12 2 -12 -4 0
-7 -6 -10 -13 -7 -6 2 -19 -3 -27 -11 -13 -14 -13 -15 0 -10 50 19 60 19 60 3
0 -9 -6 -15 -12 -12 -18 6 -48 -22 -41 -38 3 -8 12 -11 21 -7 9 3 -1 -10 -23
-29 -22 -18 -43 -38 -47 -44 -4 -5 -10 -6 -14 -2 -4 3 -1 13 5 21 7 8 8 17 3
19 -4 3 -16 -10 -27 -29 -10 -19 -22 -34 -27 -34 -5 0 -6 -5 -3 -10 4 -6 1
-18 -7 -27 -9 -12 -9 -15 0 -9 6 4 12 3 12 -3 0 -5 -6 -11 -12 -14 -9 -3 -2
-20 21 -53 l34 -49 -48 50 c-46 49 -47 49 -56 27 -5 -14 -25 -30 -49 -39 -22
-9 -40 -20 -40 -25 0 -4 -6 -8 -12 -8 -7 0 -20 -5 -28 -10 -12 -8 -10 -15 16
-42 17 -18 48 -55 69 -83 28 -36 18 -28 -38 30 -42 44 -77 77 -77 73 0 -4 27
-39 60 -77 33 -39 60 -72 60 -74 0 -3 -33 29 -72 71 -89 94 -84 90 -114 84
-29 -5 -30 -13 -6 -28 18 -12 153 -168 167 -194 4 -8 -6 1 -23 20 -17 19 -31
38 -32 43 0 4 -8 7 -17 7 -9 0 -14 3 -10 6 7 7 -42 64 -55 64 -5 0 -6 -5 -2
-12 5 -8 0 -9 -17 -5 -16 4 -30 0 -46 -15 -13 -12 -26 -18 -30 -15 -3 4 -1 7
5 7 7 0 12 4 12 8 0 5 -7 9 -15 9 -8 0 -12 -4 -9 -8 6 -11 -46 -70 -57 -64 -5
4 -6 -2 -2 -11 5 -13 3 -15 -7 -9 -8 5 -11 4 -6 -3 4 -6 -5 -12 -21 -15 -25
-4 -24 -4 6 -6 33 -1 34 -2 16 -15 -12 -8 -26 -11 -35 -6 -17 9 -40 3 -40 -11
0 -5 12 -6 26 -3 21 5 25 4 19 -6 -6 -10 -4 -12 8 -7 9 3 19 1 23 -5 5 -8 -3
-9 -26 -5 -26 6 -31 4 -26 -9 5 -14 -18 -74 -30 -74 -2 0 3 14 11 30 15 29 15
32 -16 70 -35 44 -44 48 -53 25 -3 -8 -12 -12 -20 -9 -8 3 -17 1 -21 -5 -3 -6
0 -9 8 -5 8 3 17 -2 20 -10 7 -19 -110 -149 -126 -139 -7 3 -9 3 -5 -2 4 -4
-11 -28 -33 -52 -79 -86 -89 -151 -31 -215 29 -33 32 -38 11 -25 -14 10 -32
28 -39 42 -14 26 -34 33 -45 15 -3 -5 -12 -10 -18 -10 -7 1 -5 6 5 13 9 7 13
18 10 24 -5 8 -15 4 -32 -9 -16 -14 -21 -22 -12 -25 22 -8 13 -33 -12 -33 -20
0 -23 -4 -20 -22 3 -17 2 -19 -3 -6 -6 12 -12 15 -23 8 -12 -8 -12 -10 -1 -10
8 0 12 -3 9 -6 -4 -3 -15 -1 -25 4 -13 7 -24 6 -38 -5 -17 -13 -17 -15 -2 -9
11 3 16 2 12 -4 -4 -6 4 -19 17 -30 13 -11 18 -19 11 -20 -6 0 -13 6 -16 13
-2 6 -7 9 -11 6 -4 -4 8 -26 27 -50 40 -53 57 -84 27 -49 -67 78 -95 115 -92
124 2 6 0 8 -4 3 -4 -4 -64 48 -133 116 -69 67 -160 150 -201 183 -107 87
-351 250 -418 280 -151 68 -263 88 -342 60 l-45 -15 55 51 c30 29 187 180 348
337 203 198 308 293 340 308 77 37 205 28 321 -23 65 -29 63 -29 59 -2 -5 35
-120 72 -228 72 -47 1 -98 -3 -115 -7 -28 -8 -29 -8 -10 7 66 50 186 57 312
18 54 -17 63 -18 68 -4 7 18 10 16 -50 36 -73 25 -171 30 -227 13 -57 -18 -53
-3 6 24 51 23 181 26 252 4 46 -14 63 -10 64 17 0 25 -228 41 -271 18 -36 -20
-32 -3 5 19 58 36 133 47 228 33 53 -8 86 -8 92 -2 13 13 4 20 -41 31 -58 13
-160 11 -198 -5 -19 -8 -35 -12 -34 -8 1 4 98 99 216 212 140 134 231 213 261
227 61 29 175 31 287 4z m762 -37 c-3 -3 -12 -4 -19 -1 -8 3 -5 6 6 6 11 1 17
-2 13 -5z m-70 -10 c-3 -3 -12 -4 -19 -1 -8 3 -5 6 6 6 11 1 17 -2 13 -5z
m243 -198 c0 -2 -8 -10 -17 -17 -16 -13 -17 -12 -4 4 13 16 21 21 21 13z
m-315 -56 c3 -5 2 -10 -4 -10 -5 0 -13 5 -16 10 -3 6 -2 10 4 10 5 0 13 -4 16
-10z m331 -218 c-18 -16 -18 -16 -6 6 6 13 14 21 18 18 3 -4 -2 -14 -12 -24z
m4 -84 c0 -6 -6 -5 -15 2 -8 7 -15 14 -15 16 0 2 7 1 15 -2 8 -4 15 -11 15
-16z m-93 -164 c-3 -3 -12 -4 -19 -1 -8 3 -5 6 6 6 11 1 17 -2 13 -5z m-67
-98 c0 -2 -8 -10 -17 -17 -16 -13 -17 -12 -4 4 13 16 21 21 21 13z m-90 -11
c0 -2 -9 -9 -20 -15 -12 -6 -20 -7 -20 -1 0 5 8 12 18 14 9 3 18 5 20 6 1 0 2
-1 2 -4z m-75 -43 c-3 -3 -11 0 -18 7 -9 10 -8 11 6 5 10 -3 15 -9 12 -12z
m-55 -42 c0 -5 -5 -10 -11 -10 -5 0 -7 5 -4 10 3 6 8 10 11 10 2 0 4 -4 4 -10z
m-97 -131 c-9 -9 -4 -23 18 -58 25 -38 26 -41 5 -16 -14 17 -26 33 -26 38 0 4
-7 7 -15 7 -13 0 -13 3 -3 20 7 11 17 20 22 20 6 0 5 -5 -1 -11z m-68 -99 c-3
-5 6 -27 21 -47 l27 -38 -36 40 c-23 27 -31 42 -24 47 16 10 19 10 12 -2z
m-13 -110 c29 -44 12 -28 -37 34 -12 16 -29 26 -36 24 -10 -3 -5 -13 14 -32
16 -16 26 -30 24 -32 -2 -2 -16 9 -32 26 -24 25 -26 32 -15 45 12 14 15 14 33
-2 10 -10 33 -38 49 -63z m-11 -37 c13 -16 12 -17 -3 -4 -10 7 -18 15 -18 17
0 8 8 3 21 -13z m-231 -42 c0 -5 -6 -11 -12 -14 -10 -3 -10 -7 1 -20 11 -14
17 -15 30 -5 11 9 10 6 -2 -9 -11 -12 -25 -19 -32 -17 -12 5 -18 51 -8 67 6
10 23 9 23 -2z m-1691 -57 c85 -24 209 -86 309 -153 88 -59 112 -67 112 -36 0
17 -43 32 -48 17 -2 -8 -7 -8 -17 1 -7 7 -10 16 -7 21 3 5 0 6 -6 2 -7 -4 -12
-3 -12 2 0 17 13 21 34 11 17 -8 16 -6 -4 10 -14 11 -32 20 -40 20 -10 0 -11
-2 -2 -6 13 -5 7 -23 -8 -23 -5 0 -7 11 -4 25 3 15 0 25 -7 25 -7 0 -10 3 -7
6 7 7 26 -5 171 -105 59 -41 106 -78 105 -83 -4 -12 -23 -11 -23 2 0 5 -11 17
-25 27 -23 16 -24 16 -11 0 11 -14 11 -17 0 -17 -11 0 -11 -2 1 -10 8 -5 11
-12 7 -16 -3 -4 -28 10 -53 31 -26 21 -45 34 -43 28 9 -24 119 -103 146 -104
22 -1 23 -3 7 -6 -23 -4 -9 -20 104 -119 46 -39 284 -309 323 -364 17 -25 21
-34 9 -20 -79 92 -134 150 -144 150 -8 0 -7 -3 1 -8 8 -5 7 -12 -4 -27 -15
-20 -15 -20 -10 3 4 16 1 22 -11 23 -12 0 -10 3 6 9 12 5 22 12 22 16 0 3 -7
3 -16 0 -12 -4 -15 -2 -11 9 4 8 1 17 -5 21 -6 4 -8 3 -4 -4 3 -6 2 -13 -4
-17 -6 -4 -8 -11 -5 -16 4 -5 -4 -14 -17 -19 -23 -11 -23 -11 -1 -6 13 2 25 1
28 -3 6 -11 -40 -31 -70 -31 -13 0 -31 -7 -40 -16 -14 -15 -28 -4 -168 133
-247 240 -433 370 -647 448 -98 36 -236 45 -295 21 -28 -12 -35 -13 -25 -3 8
7 47 44 87 81 39 37 89 74 110 82 44 16 128 12 212 -12z m1631 6 c-14 -11 -29
-20 -34 -20 -5 0 -7 -3 -4 -6 4 -3 17 0 30 7 21 11 22 11 9 -4 -7 -10 -22 -17
-32 -17 -11 0 -19 -5 -19 -11 0 -5 -5 -7 -11 -3 -14 8 49 74 70 74 11 0 9 -6
-9 -20z m30 -64 c0 -2 -8 -10 -17 -17 -16 -13 -17 -12 -4 4 13 16 21 21 21 13z
m-126 -119 c-2 -7 -14 -19 -27 -26 -21 -13 -21 -12 2 13 27 29 33 32 25 13z
m-1130 -13 c5 -14 4 -15 -9 -4 -17 14 -19 20 -6 20 5 0 12 -7 15 -16z m1046
11 c0 -3 -29 -35 -64 -72 -36 -37 -62 -71 -59 -76 3 -6 1 -7 -5 -3 -13 8 -75
-71 -67 -85 3 -4 1 -10 -5 -14 -5 -3 -10 2 -10 12 0 21 39 71 125 161 33 35
62 67 63 73 4 9 22 13 22 4z m114 -21 c5 -14 4 -15 -9 -4 -17 14 -19 20 -6 20
5 0 12 -7 15 -16z m-120 -113 l-69 -66 63 65 c34 36 62 72 63 80 0 12 2 12 6
1 3 -8 -22 -40 -63 -80z m-869 29 c8 7 15 9 15 6 0 -11 -27 -36 -38 -36 -14 0
-33 26 -25 33 3 4 12 2 20 -4 10 -9 17 -8 28 1z m975 -29 c0 -5 -7 -12 -16
-15 -14 -5 -15 -4 -4 9 14 17 20 19 20 6z m-1340 -42 c12 -8 10 -9 -7 -4 -15
4 -23 2 -23 -6 0 -7 -3 -10 -6 -6 -7 7 4 27 14 27 4 0 14 -5 22 -11z m1310 8
c0 -1 -26 -27 -57 -57 l-58 -55 55 58 c50 53 60 62 60 54z m-180 -72 c-13 -14
-27 -25 -32 -25 -9 0 42 49 51 50 3 0 -6 -11 -19 -25z m60 -48 c0 -2 -10 -12
-22 -23 l-23 -19 19 23 c18 21 26 27 26 19z m-1190 -21 c0 -2 -7 -7 -16 -10
-8 -3 -12 -2 -9 4 6 10 25 14 25 6z m-50 -41 c0 -2 -9 -3 -19 -2 -11 0 -18 5
-15 9 4 6 34 0 34 -7z m1390 1 c0 -2 -8 -10 -17 -17 -16 -13 -17 -12 -4 4 13
16 21 21 21 13z m-1510 -28 c0 -6 -6 -5 -15 2 -8 7 -15 14 -15 16 0 2 7 1 15
-2 8 -4 15 -11 15 -16z m110 -40 c0 -12 -6 -9 -26 13 -19 22 -19 22 4 8 12 -8
22 -17 22 -21z m-166 -51 c-13 -5 -22 -13 -18 -18 3 -5 0 -9 -5 -9 -6 0 -11
12 -10 28 0 15 3 21 6 14 2 -6 9 -10 14 -6 5 3 4 14 -3 27 -10 20 -9 20 15 -3
l26 -25 -25 -8z m89 20 c4 3 7 1 7 -5 0 -7 -5 -12 -11 -12 -5 0 -7 -6 -4 -12
4 -7 -1 -4 -9 6 -19 24 -21 43 -3 27 8 -6 17 -8 20 -4z m-123 -110 c0 -5 -18
11 -40 35 -22 23 -40 48 -40 53 0 12 79 -76 80 -88z m119 46 c2 -2 -7 -3 -22
-3 -19 0 -25 5 -24 20 1 18 2 18 22 2 11 -9 22 -18 24 -19z m-214 -3 c16 -17
16 -20 3 -15 -9 4 -19 13 -22 21 -7 19 -2 18 19 -6z m45 -21 c0 -5 -4 -9 -8
-9 -5 0 -9 7 -9 15 0 8 4 12 9 9 4 -3 8 -9 8 -15z m115 11 c3 -5 1 -10 -4 -10
-6 0 -11 5 -11 10 0 6 2 10 4 10 3 0 8 -4 11 -10z m-185 -30 c0 -5 -4 -10 -10
-10 -5 0 -10 5 -10 10 0 6 5 10 10 10 6 0 10 -4 10 -10z m194 -6 c3 -8 2 -12
-4 -9 -6 3 -10 10 -10 16 0 14 7 11 14 -7z m-99 -4 c3 -5 -1 -10 -9 -10 -9 0
-16 5 -16 10 0 6 4 10 9 10 6 0 13 -4 16 -10z m51 -14 c0 -13 -4 -22 -8 -20
-9 6 -6 44 3 44 4 0 6 -11 5 -24z m864 17 c0 -1 -9 -7 -20 -13 -15 -8 -20 -8
-20 3 0 7 9 13 20 13 11 0 20 -1 20 -3z m-60 -11 c0 -5 -7 -9 -15 -9 -8 0 -12
4 -9 9 3 4 9 8 15 8 5 0 9 -4 9 -8z m-826 -38 c3 -8 2 -12 -4 -9 -6 3 -10 10
-10 16 0 14 7 11 14 -7z m806 12 c0 -9 -30 -14 -35 -6 -4 6 3 10 14 10 12 0
21 -2 21 -4z m21 -33 c13 -16 12 -17 -3 -4 -11 8 -18 9 -18 3 0 -6 8 -16 18
-21 13 -8 14 -10 2 -11 -21 0 -44 37 -27 43 7 3 13 6 13 6 1 1 8 -7 15 -16z
m-976 -21 c-3 -3 -11 0 -18 7 -9 10 -8 11 6 5 10 -3 15 -9 12 -12z m100 -10
c-3 -3 -11 0 -18 7 -9 10 -8 11 6 5 10 -3 15 -9 12 -12z m-80 -32 c3 -5 -1
-10 -10 -10 -9 0 -13 5 -10 10 3 6 8 10 10 10 2 0 7 -4 10 -10z m-31 -86 c3
-8 2 -12 -4 -9 -6 3 -10 10 -10 16 0 14 7 11 14 -7z m-104 -24 c0 -5 -5 -10
-11 -10 -5 0 -7 5 -4 10 3 6 8 10 11 10 2 0 4 -4 4 -10z m-120 -110 c0 -5 -5
-10 -11 -10 -5 0 -7 5 -4 10 3 6 8 10 11 10 2 0 4 -4 4 -10z m0 -70 c0 -5 -8
-10 -17 -10 -15 0 -16 2 -3 10 19 12 20 12 20 0z m-140 -16 c0 -2 -7 -4 -15
-4 -8 0 -15 4 -15 10 0 5 7 7 15 4 8 -4 15 -8 15 -10z m5 -54 c3 -6 -1 -7 -9
-4 -18 7 -21 14 -7 14 6 0 13 -4 16 -10z m-744 -337 c-12 -20 -14 -14 -5 12 4
9 9 14 11 11 3 -2 0 -13 -6 -23z m406 -29 c-3 -3 -12 -4 -19 -1 -8 3 -5 6 6 6
11 1 17 -2 13 -5z m-532 -234 c3 -5 1 -10 -4 -10 -6 0 -11 5 -11 10 0 6 2 10
4 10 3 0 8 -4 11 -10z m5 -70 c0 -5 -5 -10 -11 -10 -5 0 -7 5 -4 10 3 6 8 10
11 10 2 0 4 -4 4 -10z m-55 -70 c-4 -12 -9 -19 -12 -17 -3 3 -2 15 2 27 4 12
9 19 12 17 3 -3 2 -15 -2 -27z m195 -34 c0 -2 -7 -6 -15 -10 -8 -3 -15 -1 -15
4 0 6 7 10 15 10 8 0 15 -2 15 -4z m-25 -44 c-3 -3 -11 0 -18 7 -9 10 -8 11 6
5 10 -3 15 -9 12 -12z m-89 -45 c10 -9 -82 -6 -97 3 -7 5 11 7 39 6 29 -2 55
-6 58 -9z m84 3 c0 -5 -17 -9 -37 -9 l-38 2 35 7 c19 4 36 8 38 9 1 0 2 -3 2
-9z m63 -7 c-7 -2 -21 -2 -30 0 -10 3 -4 5 12 5 17 0 24 -2 18 -5z m-300 -88
c-3 -9 -8 -14 -10 -11 -3 3 -2 9 2 15 9 16 15 13 8 -4z m-263 -165 c0 -5 -2
-10 -4 -10 -3 0 -8 5 -11 10 -3 6 -1 10 4 10 6 0 11 -4 11 -10z m70 6 c0 -3
-4 -8 -10 -11 -5 -3 -10 -1 -10 4 0 6 5 11 10 11 6 0 10 -2 10 -4z m35 -16 c3
-5 2 -10 -4 -10 -5 0 -13 5 -16 10 -3 6 -2 10 4 10 5 0 13 -4 16 -10z m95 -44
c0 -3 -4 -8 -10 -11 -5 -3 -10 -1 -10 4 0 6 5 11 10 11 6 0 10 -2 10 -4z
m-265 -46 c3 -5 1 -10 -4 -10 -6 0 -11 5 -11 10 0 6 2 10 4 10 3 0 8 -4 11
-10z m210 -8 c-3 -3 -11 0 -18 7 -9 10 -8 11 6 5 10 -3 15 -9 12 -12z m-1419
-659 c-6 -6 -45 11 -50 22 -3 10 3 9 24 -3 16 -9 28 -18 26 -19z m-113 -10
c-7 -2 -19 -2 -25 0 -7 3 -2 5 12 5 14 0 19 -2 13 -5z m-40 -31 c12 -13 26
-17 46 -14 16 2 32 -1 36 -7 5 -8 -1 -10 -19 -5 -16 4 -26 2 -26 -4 0 -14 -58
18 -65 36 -7 18 9 15 28 -6z m62 0 c-3 -3 -11 0 -18 7 -9 10 -8 11 6 5 10 -3
15 -9 12 -12z m105 -2 c0 -5 -2 -10 -4 -10 -3 0 -8 5 -11 10 -3 6 -1 10 4 10
6 0 11 -4 11 -10z m-220 -4 c0 -3 -4 -8 -10 -11 -5 -3 -10 -1 -10 4 0 6 5 11
10 11 6 0 10 -2 10 -4z m45 -64 c3 -9 3 -13 -1 -9 -4 4 -13 -1 -21 -11 -8 -9
-12 -12 -9 -5 4 6 2 14 -4 18 -5 3 -10 2 -10 -4 0 -6 -7 -8 -17 -4 -14 5 -13
8 6 15 12 4 20 12 17 17 -3 5 3 7 13 4 11 -3 22 -12 26 -21z m90 18 c-3 -5
-12 -7 -20 -3 -21 7 -19 13 6 13 11 0 18 -4 14 -10z m-238 -16 c-3 -3 -12 -4
-19 -1 -8 3 -5 6 6 6 11 1 17 -2 13 -5z m331 -6 c15 -15 16 -28 2 -28 -5 0
-10 6 -10 14 0 8 -6 17 -12 19 -7 3 -8 6 -2 6 5 1 15 -4 22 -11z m127 -26 c-3
-3 -11 0 -18 7 -9 10 -8 11 6 5 10 -3 15 -9 12 -12z m38 -10 c-3 -8 0 -18 8
-23 11 -7 9 -9 -8 -9 -12 0 -24 4 -27 9 -9 14 3 38 18 38 8 0 12 -7 9 -15z
m-603 4 c0 -3 -4 -8 -10 -11 -5 -3 -10 -1 -10 4 0 6 5 11 10 11 6 0 10 -2 10
-4z m280 -6 c0 -5 -5 -10 -11 -10 -5 0 -7 5 -4 10 3 6 8 10 11 10 2 0 4 -4 4
-10z m60 0 c8 -5 11 -10 5 -10 -5 0 -17 5 -25 10 -8 5 -10 10 -5 10 6 0 17 -5
25 -10z m-114 -25 c14 -13 19 -13 51 0 25 11 40 12 47 5 7 -7 2 -10 -17 -10
-18 0 -25 -4 -21 -14 6 -16 -15 -33 -25 -19 -11 17 -43 24 -58 11 -13 -10 -14
-8 -11 12 2 18 -3 26 -22 32 -20 6 -19 7 8 3 18 -3 40 -11 48 -20z m24 15 c0
-5 -4 -10 -10 -10 -5 0 -10 5 -10 10 0 6 5 10 10 10 6 0 10 -4 10 -10z m445 0
c3 -6 -1 -7 -9 -4 -18 7 -21 14 -7 14 6 0 13 -4 16 -10z m-3 -29 l33 -29 -30
1 c-36 2 -65 24 -58 43 8 20 19 17 55 -15z m-302 10 c0 -4 -11 -6 -25 -3 -14
2 -25 6 -25 8 0 2 11 4 25 4 14 0 25 -4 25 -9z m-217 -8 c-7 -2 -19 -2 -25 0
-7 3 -2 5 12 5 14 0 19 -2 13 -5z m393 -21 c-4 -3 -14 2 -24 12 -16 18 -16 18
6 6 13 -6 21 -14 18 -18z m-135 1 c13 -16 12 -17 -3 -4 -10 7 -18 15 -18 17 0
8 8 3 21 -13z m-27 -8 c11 -8 31 -15 45 -16 22 0 23 -1 7 -8 -22 -8 -88 11
-94 28 -5 16 19 13 42 -4z m-369 -15 c17 -7 15 -8 -10 -8 -17 1 -41 -3 -55 -7
-17 -5 -22 -4 -15 3 8 8 35 18 55 20 3 0 14 -3 25 -8z m605 0 c8 -5 12 -11 10
-14 -3 -2 -14 2 -24 10 -22 15 -10 19 14 4z m-534 -13 c6 0 9 -9 6 -19 -5 -20
-22 -25 -22 -7 0 7 -8 18 -17 26 -17 14 -17 14 2 8 11 -4 25 -8 31 -8z m68
-36 c4 -5 -5 -4 -19 2 -14 7 -25 16 -25 20 0 9 36 -9 44 -22z m616 5 c0 -3 -4
-8 -10 -11 -5 -3 -10 -1 -10 4 0 6 5 11 10 11 6 0 10 -2 10 -4z m-309 -23 c13
-15 12 -15 -8 -4 -24 12 -29 21 -14 21 5 0 15 -7 22 -17z m60 2 c3 2 6 -7 7
-20 2 -33 -3 -31 -22 6 -11 22 -12 28 -2 20 7 -6 15 -9 17 -6z m-431 -45 c0
-5 -5 -10 -11 -10 -5 0 -7 5 -4 10 3 6 8 10 11 10 2 0 4 -4 4 -10z m470 -11
c0 -5 -4 -9 -10 -9 -5 0 -10 7 -10 16 0 8 5 12 10 9 6 -3 10 -10 10 -16z m208
-20 c-16 -10 -33 5 -23 21 5 8 11 8 21 -1 12 -10 12 -14 2 -20z m-493 -27 c-8
-8 -25 10 -19 20 4 6 9 5 15 -3 4 -7 6 -15 4 -17z m112 22 c-3 -3 -12 -4 -19
-1 -8 3 -5 6 6 6 11 1 17 -2 13 -5z m-222 -22 c-3 -3 -11 0 -18 7 -9 10 -8 11
6 5 10 -3 15 -9 12 -12z m331 -12 c24 -17 44 -36 44 -41 0 -6 -12 -1 -27 11
-18 14 -29 17 -34 9 -5 -8 -12 -8 -25 0 -18 10 -18 10 1 11 11 1 14 4 7 7 -6
2 -10 9 -6 14 3 5 0 9 -5 9 -6 0 -11 -5 -11 -11 0 -5 -5 -7 -11 -3 -8 4 -7 9
2 15 19 12 15 13 65 -21z m302 10 c7 -11 11 -20 9 -20 -2 0 -12 9 -22 20 -10
11 -14 20 -9 20 5 0 15 -9 22 -20z m-421 4 c-3 -3 -12 -4 -19 -1 -8 3 -5 6 6
6 11 1 17 -2 13 -5z m313 -19 c8 -7 25 -16 38 -19 25 -8 30 -26 7 -26 -8 0
-15 4 -15 9 0 5 -12 12 -27 16 -15 3 -31 12 -35 18 -4 6 -10 8 -15 4 -4 -4 -2
-17 5 -27 7 -11 8 -20 3 -20 -5 0 -12 7 -15 16 -4 9 -9 14 -12 11 -4 -3 -12 0
-19 6 -37 34 46 45 85 12z m155 3 c-4 -40 -7 -44 -14 -18 -6 20 1 38 15 40 1
0 0 -10 -1 -22z m-75 -8 c0 -5 -2 -10 -4 -10 -3 0 -8 5 -11 10 -3 6 -1 10 4
10 6 0 11 -4 11 -10z m-490 -8 c0 -5 -12 -14 -27 -21 l-28 -11 24 20 c26 22
31 24 31 12z m106 -6 c10 -8 16 -17 12 -21 -3 -4 -16 3 -27 14 -24 24 -15 28
15 7z m124 -16 c0 -5 -4 -10 -10 -10 -5 0 -10 5 -10 10 0 6 5 10 10 10 6 0 10
-4 10 -10z m-625 -20 c19 -8 19 -9 -2 -9 -12 -1 -25 4 -28 9 -7 12 2 12 30 0z
m648 -7 c3 -5 -6 -9 -20 -10 -19 -1 -22 1 -12 8 17 11 26 11 32 2z m222 -23
c-3 -5 -11 -10 -16 -10 -6 0 -7 5 -4 10 3 6 11 10 16 10 6 0 7 -4 4 -10z
m-585 -10 c8 -5 11 -10 5 -10 -5 0 -17 5 -25 10 -8 5 -10 10 -5 10 6 0 17 -5
25 -10z m207 4 c-3 -3 -12 -4 -19 -1 -8 3 -5 6 6 6 11 1 17 -2 13 -5z m553
-26 c0 -11 -4 -10 -34 3 -14 7 -23 16 -20 20 6 10 54 -10 54 -23z m-220 8 c-7
-7 -13 -7 -20 0 -6 6 -3 10 10 10 13 0 16 -4 10 -10z m-790 -16 c0 -5 -7 -10
-16 -10 -8 0 -12 5 -9 10 3 6 10 10 16 10 5 0 9 -4 9 -10z m280 6 c0 -3 -4 -8
-10 -11 -5 -3 -10 -1 -10 4 0 6 5 11 10 11 6 0 10 -2 10 -4z m204 -9 c11 -8
17 -19 15 -25 -2 -6 -14 -1 -28 13 -25 27 -17 34 13 12z m336 9 c0 -3 -4 -8
-10 -11 -5 -3 -10 -1 -10 4 0 6 5 11 10 11 6 0 10 -2 10 -4z m145 -16 c3 -5 1
-10 -4 -10 -6 0 -11 5 -11 10 0 6 2 10 4 10 3 0 8 -4 11 -10z m89 1 c6 -10
-24 -25 -32 -16 -3 3 0 5 7 5 7 0 9 5 6 10 -3 6 -2 10 4 10 5 0 12 -4 15 -9z
m-175 -27 c14 -12 -19 -1 -35 12 -18 14 -18 14 6 3 14 -6 27 -13 29 -15z
m-717 4 c-5 -5 -19 -5 -33 1 -22 8 -22 9 9 9 19 -1 29 -5 24 -10z m758 2 c0
-5 -2 -10 -4 -10 -3 0 -8 5 -11 10 -3 6 -1 10 4 10 6 0 11 -4 11 -10z m-377
-43 c-3 -5 -11 0 -18 10 -7 10 -11 21 -8 26 3 5 11 0 18 -10 7 -10 11 -21 8
-26z m-463 3 c0 -5 -2 -10 -4 -10 -3 0 -8 5 -11 10 -3 6 -1 10 4 10 6 0 11 -4
11 -10z m145 -28 c-8 -8 -25 10 -19 20 4 6 9 5 15 -3 4 -7 6 -15 4 -17z m424
4 c32 -17 59 -46 42 -46 -23 0 -26 2 -23 16 2 8 -1 14 -5 13 -15 -2 -53 13
-53 22 0 12 6 11 39 -5z m-369 -46 c0 -5 -4 -10 -10 -10 -5 0 -10 5 -10 10 0
6 5 10 10 10 6 0 10 -4 10 -10z m445 -30 c-3 -5 -14 -10 -23 -10 -15 0 -15 2
-2 10 20 13 33 13 25 0z m302 -5 c8 -9 13 -19 9 -22 -3 -4 -12 0 -19 9 -6 9
-19 18 -27 21 -11 4 -11 6 3 6 10 1 25 -6 34 -14z m-292 -35 c3 -5 1 -10 -4
-10 -6 0 -11 5 -11 10 0 6 2 10 4 10 3 0 8 -4 11 -10z m349 -19 c3 -4 -6 -8
-18 -9 -13 -1 -23 4 -23 12 0 13 33 11 41 -3z m-84 5 c0 -3 -4 -8 -10 -11 -5
-3 -10 -1 -10 4 0 6 5 11 10 11 6 0 10 -2 10 -4z m-227 -31 c-3 -9 -8 -14 -10
-11 -3 3 -2 9 2 15 9 16 15 13 8 -4z m67 6 c0 -5 16 -15 36 -21 19 -7 33 -14
31 -16 -9 -9 -87 21 -87 33 0 7 5 13 10 13 6 0 10 -4 10 -9z m-42 -38 c-10 -2
-18 -9 -18 -14 0 -6 -5 -7 -10 -4 -16 10 -1 25 23 24 17 -1 18 -2 5 -6z m7
-23 c3 -5 1 -10 -4 -10 -6 0 -11 5 -11 10 0 6 2 10 4 10 3 0 8 -4 11 -10z
m-254 -58 c-7 -2 -18 1 -23 6 -8 8 -4 9 13 5 13 -4 18 -8 10 -11z m19 -22 c0
-5 -4 -10 -10 -10 -5 0 -10 5 -10 10 0 6 5 10 10 10 6 0 10 -4 10 -10z"/>
<path d="M8526 9230 c-15 -5 -16 -9 -7 -15 8 -4 16 -2 21 5 6 10 9 9 12 -1 3
-9 6 -10 11 -2 9 14 -13 22 -37 13z"/>
<path d="M8412 9178 c5 -15 28 -23 28 -10 0 5 -7 13 -16 16 -10 4 -14 1 -12
-6z"/>
<path d="M8141 9043 c-19 -20 -2 -37 18 -19 20 18 33 12 24 -12 -5 -12 -2 -14
11 -9 10 4 22 7 27 7 5 0 9 8 8 18 0 11 -2 12 -6 4 -4 -10 -8 -9 -18 4 -15 22
-47 25 -64 7z"/>
<path d="M8149 8998 c-8 -7 -20 -13 -26 -14 -29 -2 -33 -5 -33 -20 0 -14 2
-14 16 1 12 12 19 13 30 4 11 -9 17 -9 28 0 11 9 15 9 18 -1 3 -7 7 -8 10 -3
3 6 -2 18 -12 28 -15 15 -20 16 -31 5z"/>
<path d="M8220 8990 c-13 -8 -12 -10 3 -10 9 0 17 -7 17 -15 0 -8 5 -15 10
-15 9 0 0 27 -14 47 -1 1 -8 -2 -16 -7z"/>
<path d="M8270 8976 c0 -8 4 -17 9 -20 5 -4 7 3 4 14 -6 23 -13 26 -13 6z"/>
<path d="M8311 8954 c0 -11 3 -14 6 -6 3 7 2 16 -1 19 -3 4 -6 -2 -5 -13z"/>
<path d="M8210 8950 c-12 -7 -12 -11 -2 -20 6 -5 10 -7 7 -4 -3 4 0 13 6 21
13 15 10 16 -11 3z"/>
<path d="M8417 8933 c-4 -6 -2 -45 2 -61 1 -2 9 4 18 14 12 12 14 19 6 21 -7
3 -9 11 -6 19 5 14 -12 20 -20 7z"/>
<path d="M8275 8921 c8 -14 44 -20 39 -7 -2 6 -14 12 -24 13 -11 1 -18 -2 -15
-6z"/>
<path d="M8231 8915 c0 -5 6 -18 13 -28 11 -13 19 -15 37 -8 l24 10 -24 0
c-13 1 -30 9 -37 19 -7 9 -13 13 -13 7z"/>
<path d="M8330 8905 c0 -8 4 -15 9 -15 5 0 11 7 15 15 3 9 0 15 -9 15 -8 0
-15 -7 -15 -15z"/>
<path d="M8045 8590 c-3 -5 -1 -10 4 -10 6 0 11 5 11 10 0 6 -2 10 -4 10 -3 0
-8 -4 -11 -10z"/>
<path d="M7420 7370 c0 -5 5 -10 11 -10 5 0 7 5 4 10 -3 6 -8 10 -11 10 -2 0
-4 -4 -4 -10z"/>
<path d="M7460 7354 c0 -8 5 -12 10 -9 6 3 10 10 10 16 0 5 -4 9 -10 9 -5 0
-10 -7 -10 -16z"/>
<path d="M7200 7940 c0 -5 5 -10 10 -10 6 0 10 5 10 10 0 6 -4 10 -10 10 -5 0
-10 -4 -10 -10z"/>
<path d="M6847 7679 c7 -7 15 -10 18 -7 3 3 -2 9 -12 12 -14 6 -15 5 -6 -5z"/>
<path d="M6450 7589 c-230 -37 -476 -273 -497 -478 -6 -63 -6 -63 17 -56 18 6
22 4 17 -8 -3 -8 0 -20 6 -26 8 -8 7 -11 -3 -11 -10 0 -11 -3 -4 -8 6 -4 24
-36 41 -72 16 -36 55 -92 85 -125 30 -33 54 -68 53 -77 -6 -33 153 -117 264
-139 98 -19 231 -7 323 28 129 51 213 131 266 254 25 59 27 75 27 195 l0 130
-38 77 c-105 213 -347 350 -557 316z m191 -25 c68 -21 153 -63 201 -102 44
-35 120 -124 112 -131 -3 -3 -9 1 -14 9 -5 8 -12 11 -16 7 -4 -4 2 -20 13 -35
33 -44 63 -156 63 -231 0 -133 -48 -240 -147 -331 -52 -47 -77 -62 -144 -84
-258 -85 -561 37 -672 271 -28 60 -32 78 -32 153 0 118 28 175 138 285 65 66
99 91 168 124 47 22 92 41 101 41 8 0 23 9 33 20 23 25 117 27 196 4z m-443
-837 c6 -7 38 -26 71 -42 34 -16 59 -30 57 -32 -2 -3 -21 4 -43 15 -21 10 -51
22 -66 26 -17 4 -25 11 -21 18 5 7 2 9 -8 6 -9 -4 -15 0 -15 8 0 18 11 18 25
1z"/>
<path d="M6460 7560 c-12 -8 -9 -10 12 -10 15 0 30 5 33 10 8 13 -25 13 -45 0z"/>
<path d="M6413 7508 c-33 -7 -41 -13 -40 -29 1 -12 6 -18 15 -14 7 3 16 5 18
5 2 0 4 7 4 15 0 19 19 19 26 0 4 -8 11 -12 16 -9 6 4 6 9 -2 14 -19 12 38 22
60 10 23 -12 33 -13 26 -1 -7 11 78 -5 129 -25 70 -27 146 -77 140 -92 -3 -9
0 -12 9 -9 18 7 36 -11 29 -29 -3 -8 1 -14 11 -14 8 0 21 -10 27 -22 7 -13 19
-29 27 -37 10 -10 11 -16 3 -19 -16 -5 -14 -22 4 -22 18 0 19 -12 3 -28 -17
-17 -6 -23 14 -8 16 12 15 16 -7 64 -82 178 -319 294 -512 250z"/>
<path d="M6485 7490 c-3 -5 -1 -10 4 -10 6 0 11 5 11 10 0 6 -2 10 -4 10 -3 0
-8 -4 -11 -10z"/>
<path d="M6333 7482 c-7 -5 -9 -13 -4 -21 7 -11 11 -9 20 8 12 21 6 27 -16 13z"/>
<path d="M6250 7437 c-34 -24 -41 -33 -27 -35 10 -2 26 7 37 20 11 13 19 17
20 11 0 -23 18 -14 22 12 6 32 3 31 -52 -8z"/>
<path d="M6440 7445 c-7 -8 8 -10 49 -7 36 3 79 -2 114 -12 65 -19 67 -19 67
-5 0 6 -6 9 -12 6 -7 -2 -24 0 -38 6 -40 16 -170 24 -180 12z"/>
<path d="M6387 7429 c-10 -6 -25 -8 -32 -5 -14 5 -32 -11 -23 -20 6 -5 70 16
83 27 13 13 -6 11 -28 -2z"/>
<path d="M6695 7430 c-3 -5 -1 -10 4 -10 6 0 11 5 11 10 0 6 -2 10 -4 10 -3 0
-8 -4 -11 -10z"/>
<path d="M6287 7391 c-3 -13 -13 -21 -26 -21 -12 0 -21 -6 -21 -15 0 -17 15
-12 55 19 15 11 17 18 9 26 -8 8 -13 6 -17 -9z"/>
<path d="M6397 7395 c-83 -23 -164 -92 -203 -173 -15 -32 -15 -34 7 -53 22
-19 31 -22 89 -32 14 -2 32 -7 40 -11 10 -4 21 4 33 25 10 18 15 34 12 37 -3
3 -5 0 -5 -6 0 -6 -10 -14 -21 -17 -17 -6 -19 -9 -8 -16 11 -6 8 -9 -8 -9 -15
0 -21 5 -17 14 3 8 1 17 -5 21 -6 3 -11 16 -12 28 0 12 -3 16 -6 10 -5 -14
-53 -18 -53 -5 0 4 9 14 19 21 11 8 17 20 14 28 -6 16 19 17 36 1 11 -11 13
-10 8 4 -3 9 1 22 8 28 14 12 47 70 40 70 -2 0 -13 -9 -24 -21 -11 -12 -21
-16 -25 -10 -9 15 59 46 130 60 95 18 181 -3 266 -65 39 -29 47 -40 43 -58 -5
-15 -4 -17 3 -7 7 9 12 10 16 2 4 -6 1 -12 -6 -12 -7 -1 -17 -2 -23 -4 -5 -1
-14 -3 -20 -4 -5 -1 -4 -5 4 -10 9 -6 10 -11 2 -15 -10 -6 -12 -1 -10 20 0 7
-41 38 -71 53 -24 11 -24 11 -5 -3 40 -30 45 -37 45 -59 0 -34 -34 -82 -91
-127 -64 -50 -77 -46 -18 7 73 64 89 85 89 113 0 34 -16 48 -74 65 -41 13 -45
12 -64 -8 -32 -36 -41 -62 -44 -121 -2 -44 -6 -57 -20 -62 -10 -3 -16 -10 -13
-15 3 -5 -1 -6 -9 -3 -9 3 -16 3 -16 0 0 -9 48 -27 82 -31 15 -2 32 -6 37 -10
6 -3 39 6 74 20 35 14 78 25 95 25 19 0 35 7 41 18 6 10 11 12 11 4 0 -7 5
-10 11 -6 7 4 10 1 7 -7 -2 -8 -27 -18 -54 -22 -51 -9 -158 -57 -161 -73 -1
-5 21 -10 49 -10 62 -2 76 -14 54 -45 -20 -29 -20 -39 0 -39 8 0 12 5 9 11 -4
6 2 13 14 16 14 4 21 13 21 30 0 20 3 22 19 13 14 -7 21 -6 24 3 2 6 8 9 12 5
7 -7 -22 -43 -34 -43 -3 0 -5 -4 -3 -8 4 -12 -40 -46 -58 -46 -8 0 -23 6 -33
13 -14 11 -16 19 -7 40 9 25 8 26 -25 26 -19 0 -35 -4 -35 -10 0 -5 4 -10 10
-10 20 0 23 -50 5 -70 -32 -35 -95 -21 -95 22 0 16 -3 16 -41 3 -57 -20 -101
-19 -126 4 -12 11 -24 17 -27 14 -9 -9 34 -36 79 -50 l40 -13 -45 5 c-25 2
-55 7 -65 10 -20 6 -10 0 70 -38 59 -27 188 -34 252 -13 116 38 190 135 200
258 7 79 -8 135 -50 190 -94 122 -243 173 -390 133z m-87 -90 c0 -12 -19 -12
-23 0 -4 9 -1 12 9 8 7 -3 14 -7 14 -8z m319 -46 c19 -12 30 -24 24 -27 -6 -4
-13 -17 -17 -28 -8 -27 -48 -71 -93 -101 -38 -26 -51 -30 -35 -10 7 8 7 18 2
27 -17 26 -11 72 15 117 30 50 51 54 104 22z m-369 4 c0 -14 -15 -29 -33 -36
-13 -5 -17 -3 -14 5 2 7 10 12 16 11 6 -2 10 0 10 5 -3 14 1 22 11 22 6 0 10
-3 10 -7z m-28 -65 c3 -7 18 -13 34 -13 17 -1 30 -8 32 -16 2 -10 -5 -14 -22
-14 -30 2 -79 33 -71 45 8 14 23 12 27 -2z m518 2 c0 -5 -5 -10 -11 -10 -5 0
-7 5 -4 10 3 6 8 10 11 10 2 0 4 -4 4 -10z m44 -62 c4 3 6 0 6 -6 0 -17 -14
-22 -45 -14 -43 12 -44 32 -1 22 19 -4 37 -5 40 -2z m-84 -26 c0 -9 -81 -44
-87 -38 -5 5 59 44 75 45 6 1 12 -3 12 -7z m-225 -32 c3 -5 1 -10 -4 -10 -6 0
-11 5 -11 10 0 6 2 10 4 10 3 0 8 -4 11 -10z m226 -81 c-16 -6 -28 -6 -35 1
-7 7 1 10 25 9 32 0 33 -1 10 -10z"/>
<path d="M6695 7400 c3 -5 8 -10 11 -10 2 0 4 5 4 10 0 6 -5 10 -11 10 -5 0
-7 -4 -4 -10z"/>
<path d="M6760 7400 c0 -5 5 -10 11 -10 5 0 7 5 4 10 -3 6 -8 10 -11 10 -2 0
-4 -4 -4 -10z"/>
<path d="M6142 7338 c-58 -59 -93 -123 -100 -183 -4 -39 -2 -43 22 -47 29 -6
33 -1 12 16 -22 17 -25 52 -3 48 19 -3 23 18 6 35 -14 14 -1 36 17 29 10 -4
14 3 14 24 0 17 5 30 10 30 15 0 50 38 48 53 -2 7 6 11 20 10 16 -2 22 2 22
17 0 31 -13 24 -68 -32z"/>
<path d="M6386 7349 c-14 -9 -15 -13 -6 -19 7 -4 9 -13 5 -20 -6 -9 -9 -9 -15
-1 -5 9 -11 7 -21 -5 -12 -16 -12 -17 4 -11 11 4 16 3 12 -4 -4 -5 0 -21 9
-34 20 -30 20 -94 1 -119 -8 -10 -12 -23 -9 -27 12 -20 22 -6 33 48 9 46 8 61
-4 86 -8 17 -15 35 -15 42 0 17 35 47 44 38 5 -5 7 1 5 11 -5 24 -18 29 -43
15z"/>
<path d="M6755 7349 c4 -6 13 -8 20 -5 7 2 12 -3 11 -12 0 -9 9 -21 21 -26 12
-6 21 -17 21 -26 0 -8 10 -42 22 -75 40 -110 12 -245 -71 -340 -115 -130 -397
-124 -538 13 -104 100 -133 214 -85 336 5 14 3 17 -7 14 -8 -3 -13 -12 -11
-21 1 -8 -7 -18 -18 -22 -18 -6 -19 -8 -5 -22 14 -14 14 -17 0 -32 -17 -20
-20 -35 -5 -26 17 10 11 -17 -7 -38 -16 -18 -16 -20 -1 -14 15 5 30 -22 32
-58 1 -5 8 -16 16 -22 13 -11 13 -15 -4 -28 -11 -8 -16 -18 -12 -22 5 -5 13
-1 19 8 9 14 17 10 58 -35 39 -43 44 -52 31 -59 -13 -6 -12 -7 4 -4 11 3 29
-2 39 -9 11 -8 13 -14 6 -14 -7 0 -9 -5 -5 -11 5 -8 9 -8 14 1 11 18 49 -5 46
-27 -2 -10 -1 -12 1 -5 3 6 11 12 18 12 23 0 45 -12 39 -21 -3 -5 9 -6 27 -2
27 5 31 4 26 -10 -4 -10 -2 -17 3 -17 6 0 10 5 10 10 0 13 37 13 45 0 4 -6 13
-5 26 3 16 10 21 9 28 -1 6 -10 10 -10 21 3 17 20 44 20 36 -1 -4 -10 -1 -14
6 -11 7 2 12 11 10 20 -2 14 3 15 28 11 23 -5 30 -3 30 9 0 22 20 32 31 16 7
-11 10 -9 15 9 4 15 14 22 30 22 20 0 24 5 24 30 0 17 5 30 10 30 6 0 10 -5
10 -12 0 -26 23 11 26 43 4 34 14 53 14 27 0 -8 14 -19 33 -25 l32 -9 -37 -14
c-43 -16 -48 -27 -15 -32 19 -3 17 -6 -17 -21 -34 -15 -37 -19 -25 -33 12 -15
17 -13 45 21 32 36 55 78 69 123 8 28 -5 28 -34 1 -12 -12 -23 -19 -25 -18
-11 18 -25 62 -21 69 6 10 45 1 45 -11 0 -5 11 -9 25 -9 21 0 25 5 26 33 1 17
3 42 4 55 3 27 -6 28 -28 4 -21 -24 -22 -36 -1 -28 12 5 15 2 10 -10 -3 -8 -6
-20 -6 -25 0 -15 -19 -10 -40 11 -24 24 -27 52 -5 44 8 -4 15 -2 15 4 0 5 -7
15 -15 22 -8 7 -15 19 -15 26 0 8 7 14 15 14 22 0 18 18 -5 25 -22 7 -26 20
-9 30 7 5 3 15 -11 30 -20 22 -21 23 -3 27 15 3 13 7 -11 19 -18 10 -25 19
-17 23 17 11 13 26 -8 26 -10 0 -24 7 -31 15 -10 12 -10 15 1 15 11 0 11 2 -1
10 -20 13 -53 13 -45 -1z"/>
<path d="M6445 7340 c-3 -5 -2 -10 4 -10 5 0 13 5 16 10 3 6 2 10 -4 10 -5 0
-13 -4 -16 -10z"/>
<path d="M6553 7328 c-13 -6 -23 -15 -23 -20 0 -10 36 7 45 22 7 12 7 12 -22
-2z"/>
<path d="M6465 7321 c-3 -5 -19 -12 -35 -16 -17 -4 -30 -8 -30 -10 0 -13 24
-54 30 -50 8 5 5 -69 -4 -84 -4 -6 -5 -11 -2 -11 3 0 1 -11 -4 -25 -12 -31 3
-42 35 -25 16 8 21 18 17 32 -4 18 -6 18 -18 -8 -16 -38 -18 -9 -3 51 9 36 8
49 -5 76 -20 40 -20 55 -1 39 12 -10 19 -10 27 -2 7 7 8 12 4 12 -5 0 -3 7 4
15 8 9 9 15 2 15 -6 0 -13 -4 -17 -9z"/>
<path d="M6194 7312 c-6 -4 -14 -17 -18 -29 -4 -14 -12 -20 -22 -16 -7 3 -14
1 -14 -5 0 -5 6 -12 14 -15 9 -4 24 9 40 34 25 37 25 48 0 31z"/>
<path d="M6683 7293 c11 -12 25 -19 33 -16 10 4 13 0 8 -13 -5 -18 -5 -18 6
-1 8 13 9 22 2 29 -6 6 -12 6 -17 -2 -5 -8 -13 -6 -28 7 -22 18 -22 18 -4 -4z"/>
<path d="M6340 7271 c0 -5 5 -13 10 -16 6 -3 10 -2 10 4 0 5 -4 13 -10 16 -5
3 -10 2 -10 -4z"/>
<path d="M6480 7266 c-6 -9 -10 -21 -8 -28 3 -8 9 -4 17 10 15 28 9 39 -9 18z"/>
<path d="M6328 7218 c5 -5 16 -8 23 -6 8 3 3 7 -10 11 -17 4 -21 3 -13 -5z"/>
<path d="M6939 7183 c-1 -4 0 -16 1 -26 1 -10 -7 -25 -17 -33 -10 -7 -13 -14
-6 -14 6 0 18 -3 27 -6 13 -5 16 2 16 34 0 23 -4 44 -10 47 -5 3 -11 3 -11 -2z"/>
<path d="M6174 7156 c-3 -8 -4 -23 -2 -33 3 -11 6 -6 9 15 6 34 2 42 -7 18z"/>
<path d="M6195 7140 c-8 -13 15 -24 27 -12 6 6 4 11 -6 15 -8 3 -18 2 -21 -3z"/>
<path d="M6218 7104 c-13 -13 -14 -22 -6 -40 6 -13 18 -24 27 -24 14 1 13 2
-1 11 -10 5 -18 19 -18 29 0 10 8 24 18 29 9 6 12 11 7 11 -6 0 -18 -7 -27
-16z"/>
<path d="M6036 7063 c4 -21 11 -40 15 -41 5 -2 7 -7 5 -11 -3 -4 4 -8 15 -8
25 -2 25 14 -1 22 -22 7 -27 31 -7 38 9 3 9 7 -2 20 -22 28 -32 20 -25 -20z"/>
<path d="M6246 7081 c-3 -5 7 -11 22 -14 32 -6 42 0 22 13 -19 12 -37 13 -44
1z"/>
<path d="M6320 7057 c0 -5 14 -7 31 -5 22 3 34 -1 44 -14 8 -13 22 -18 37 -16
22 3 21 5 -12 23 -37 20 -100 28 -100 12z"/>
<path d="M6521 7008 c-1 -11 -6 -15 -16 -12 -8 3 -22 -2 -31 -11 -9 -9 -25
-14 -36 -12 -10 3 -16 2 -14 -2 3 -4 -4 -13 -16 -20 -15 -9 -18 -9 -13 0 5 7
3 10 -5 7 -7 -2 -17 -14 -22 -27 -7 -20 -6 -22 9 -16 10 4 36 9 58 9 22 1 61
3 88 4 52 2 59 15 29 48 -11 11 -22 26 -25 34 -4 12 -6 11 -6 -2z m-21 -52 c0
-3 -4 -8 -10 -11 -5 -3 -10 -1 -10 4 0 6 5 11 10 11 6 0 10 -2 10 -4z"/>
<path d="M6260 7001 c0 -6 4 -13 10 -16 6 -3 7 1 4 9 -7 18 -14 21 -14 7z"/>
<path d="M6329 6987 c-24 -23 -35 -47 -21 -47 7 1 55 70 48 70 -2 0 -14 -10
-27 -23z"/>
<path d="M6056 6975 c6 -14 64 -39 64 -27 0 4 -16 15 -35 24 -26 13 -33 14
-29 3z"/>
<path d="M6226 6953 c-6 -14 -5 -15 5 -6 7 7 10 15 7 18 -3 3 -9 -2 -12 -12z"/>
<path d="M6090 6910 c0 -11 8 -16 43 -24 17 -4 26 -3 23 3 -8 13 -66 32 -66
21z"/>
<path d="M6551 6899 c-27 -14 -31 -20 -19 -24 21 -8 58 11 58 30 0 8 -1 14 -2
14 -2 -1 -18 -10 -37 -20z"/>
<path d="M6120 6863 c13 -21 70 -38 70 -21 0 7 -25 11 -34 6 -2 -2 -14 6 -26
17 l-23 20 13 -22z"/>
<path d="M6171 6803 c6 -7 20 -13 30 -13 11 0 19 -7 19 -15 0 -21 22 -28 51
-15 22 10 22 10 -9 7 -28 -3 -32 -1 -30 17 2 17 -4 22 -34 27 -31 5 -36 3 -27
-8z"/>
<path d="M6787 6783 c-23 -4 -27 -8 -22 -24 5 -16 3 -20 -12 -19 -29 3 -59 -1
-45 -7 26 -10 10 -21 -25 -16 -26 4 -34 3 -29 -5 5 -8 1 -10 -9 -5 -10 3 -21
0 -26 -8 -7 -11 -12 -12 -28 -2 -14 9 -22 9 -27 2 -3 -6 -13 -8 -21 -5 -9 4
-21 2 -28 -4 -9 -7 -16 -6 -25 5 -10 12 -16 13 -28 3 -13 -11 -15 -10 -9 6 6
14 4 17 -8 12 -8 -3 -22 -9 -30 -12 -10 -4 -15 0 -15 11 0 15 -6 17 -35 12
-24 -4 -35 -2 -35 7 0 7 -14 12 -35 12 -19 0 -35 -1 -35 -3 0 -5 57 -32 101
-48 24 -9 90 -19 145 -22 86 -5 112 -2 170 15 38 12 88 36 112 54 38 29 54 50
35 47 -5 -1 -21 -4 -36 -6z"/>
<path d="M6980 7587 c0 -2 13 -13 29 -25 23 -17 35 -20 53 -13 20 9 11 16 -15
12 -4 -1 -21 6 -37 14 -17 9 -30 14 -30 12z"/>
<path d="M7275 7138 c-19 -20 -22 -27 -9 -20 23 12 61 52 48 52 -5 -1 -22 -15
-39 -32z"/>
<path d="M7290 7109 c0 -5 5 -7 10 -4 6 3 10 8 10 11 0 2 -4 4 -10 4 -5 0 -10
-5 -10 -11z"/>
<path d="M7196 7046 c-10 -16 -22 -23 -35 -19 -10 2 -21 1 -24 -4 -4 -6 7 -10
23 -10 16 0 32 7 34 14 3 8 9 12 14 9 4 -2 8 4 8 15 0 24 0 24 -20 -5z"/>
<path d="M5950 7030 c0 -5 5 -10 10 -10 6 0 10 5 10 10 0 6 -4 10 -10 10 -5 0
-10 -4 -10 -10z"/>
<path d="M5960 6996 c0 -8 4 -17 9 -20 5 -4 7 3 4 14 -6 23 -13 26 -13 6z"/>
<path d="M7183 7000 c-30 -12 -29 -18 2 -12 14 2 25 8 25 13 0 5 -1 9 -2 8 -2
0 -13 -4 -25 -9z"/>
<path d="M7065 6989 c-4 -6 -5 -12 -2 -15 2 -3 7 2 10 11 7 17 1 20 -8 4z"/>
<path d="M7136 6971 c-4 -6 -1 -11 6 -12 7 0 4 -4 -6 -8 -17 -7 -18 -8 -3 -14
21 -8 31 8 19 29 -6 11 -11 13 -16 5z"/>
<path d="M5983 6945 c-3 -9 -3 -18 -1 -21 3 -3 8 4 11 16 6 23 -1 27 -10 5z"/>
<path d="M5373 6942 c-6 -4 -84 -78 -173 -165 -144 -140 -158 -157 -133 -157
22 0 41 14 86 65 48 54 64 65 90 65 69 1 170 69 202 137 17 35 17 37 -1 50
-20 14 -52 17 -71 5z m13 -54 c10 -16 -70 -88 -98 -88 -20 0 -16 6 27 50 52
53 60 57 71 38z"/>
<path d="M5525 6908 c-14 -11 -23 -23 -20 -28 6 -10 -170 -205 -225 -249 -22
-18 -40 -36 -40 -40 0 -5 14 -11 32 -15 29 -6 36 -1 99 66 37 40 70 70 74 66
4 -4 -15 -46 -43 -92 -40 -67 -47 -86 -35 -90 32 -13 44 -3 99 79 31 47 63 85
71 85 31 0 106 45 124 74 39 64 13 123 -66 149 -42 15 -46 14 -70 -5z m66 -58
c42 -23 8 -81 -60 -100 -60 -16 -64 0 -14 58 50 58 47 56 74 42z"/>
<path d="M5996 6897 c3 -10 9 -15 12 -12 3 3 0 11 -7 18 -10 9 -11 8 -5 -6z"/>
<path d="M7020 6838 c-22 -36 -13 -56 17 -39 17 10 17 10 1 11 -10 0 -18 5
-18 11 0 5 6 7 13 3 6 -4 9 -4 5 1 -4 4 -3 16 3 26 17 32 0 21 -21 -13z"/>
<path d="M5762 6802 c-15 -12 -19 -21 -13 -27 12 -12 -213 -255 -237 -255 -8
0 -24 -7 -33 -16 -17 -16 -15 -19 49 -66 98 -73 98 -73 132 -46 36 28 40 60 8
58 -36 -3 -43 -1 -65 19 l-20 19 48 52 c40 43 51 50 67 41 14 -7 24 -7 36 2
16 12 15 14 -8 27 -14 7 -26 17 -26 22 0 5 4 7 10 3 10 -6 62 34 56 44 -2 3 8
17 23 31 14 14 25 24 24 21 -3 -5 43 -41 52 -41 3 0 3 4 0 10 -3 5 0 7 9 4 8
-3 13 -14 11 -26 -3 -11 -1 -18 2 -14 13 12 13 50 1 57 -6 4 -20 3 -29 -2 -15
-7 -17 -5 -14 10 2 13 -3 22 -16 26 -11 4 -19 9 -16 11 7 8 61 -16 84 -38 12
-11 19 -27 17 -37 -4 -11 -2 -10 7 3 11 17 8 24 -23 50 -20 17 -53 41 -74 53
-37 21 -40 21 -62 5z m53 -12 c3 -5 1 -10 -4 -10 -6 0 -11 5 -11 10 0 6 2 10
4 10 3 0 8 -4 11 -10z m-75 -84 c0 -2 -7 -7 -16 -10 -8 -3 -12 -2 -9 4 6 10
25 14 25 6z m-60 -59 c0 -2 -12 -14 -27 -28 l-28 -24 24 28 c23 25 31 32 31
24z m-55 -67 c3 -5 1 -10 -4 -10 -6 0 -11 5 -11 10 0 6 2 10 4 10 3 0 8 -4 11
-10z m-59 -71 c-25 -30 -36 -66 -16 -54 6 3 10 1 10 -4 0 -15 -4 -14 -44 10
-40 23 -41 25 -24 35 6 4 8 3 5 -3 -4 -6 1 -14 10 -17 11 -5 24 2 39 21 13 15
23 31 24 36 0 4 5 7 11 7 6 0 -1 -14 -15 -31z m42 -58 c23 -19 40 -27 54 -23
21 5 21 5 0 -16 -12 -12 -28 -22 -34 -22 -10 0 -9 3 1 9 7 5 10 14 7 20 -4 6
-12 9 -17 5 -6 -3 -17 2 -25 12 -12 17 -13 17 -8 2 4 -11 1 -18 -6 -18 -8 0
-10 9 -6 24 4 15 1 26 -7 29 -6 3 -7 6 -2 6 6 0 25 -13 43 -28z"/>
<path d="M6882 6671 c-18 -14 -30 -30 -26 -34 13 -13 26 -7 20 8 -5 14 4 19
31 16 15 -2 23 12 15 26 -5 8 -18 2 -40 -16z"/>
<path d="M5952 6660 c-18 -29 -15 -36 7 -16 15 14 24 15 40 6 25 -13 28 -25 5
-16 -25 9 -70 -30 -185 -159 -56 -63 -108 -115 -114 -115 -7 0 -16 -7 -19 -16
-10 -26 -7 -28 13 -10 11 10 25 15 32 10 7 -4 10 -3 6 4 -4 5 13 32 38 59 25
26 45 42 45 35 0 -7 -14 -25 -30 -39 -17 -14 -29 -31 -27 -37 2 -6 -5 -19 -16
-29 -16 -14 -23 -15 -30 -5 -6 9 -7 8 -4 -4 3 -9 2 -18 -4 -20 -5 -2 0 -9 12
-17 19 -11 21 -11 16 3 -4 9 -1 16 5 16 17 0 87 72 82 84 -3 7 11 19 31 28 19
8 35 13 35 11 0 -3 -25 -45 -55 -95 -59 -96 -63 -108 -39 -108 23 0 50 16 137
83 43 33 80 58 82 56 2 -3 -34 -46 -81 -97 l-84 -93 30 -26 c28 -23 34 -24 56
-13 16 9 22 19 19 31 -4 12 16 43 67 99 40 45 92 104 114 131 23 26 44 46 46
43 3 -2 13 5 24 17 19 21 18 21 -19 55 l-38 35 -37 -29 c-76 -59 -163 -113
-175 -108 -7 2 -4 5 6 5 17 1 23 16 10 24 -5 2 -3 3 3 1 11 -2 20 10 71 99 26
47 30 59 18 64 -9 3 -22 0 -30 -7 -8 -7 -15 -8 -15 -2 0 5 7 15 15 22 12 10
18 10 30 0 9 -7 18 -11 21 -8 5 5 -83 68 -95 68 -4 0 -12 -9 -19 -20z m38 -49
c-5 -11 -23 -28 -40 -37 -29 -18 -48 -44 -31 -44 5 0 11 7 14 14 8 21 64 49
72 35 11 -16 -3 -39 -22 -38 -17 1 -17 2 0 6 9 2 17 9 17 14 0 6 -14 2 -30 -8
-18 -10 -26 -19 -18 -22 24 -7 38 -41 17 -41 -5 0 -8 4 -5 9 6 9 -23 25 -31
18 -8 -8 10 -37 23 -37 8 0 14 -5 14 -11 0 -5 -4 -8 -9 -4 -12 7 -41 -22 -41
-40 0 -7 -7 -15 -15 -19 -13 -4 -13 -2 -5 14 13 24 13 33 0 25 -5 -3 -10 -1
-10 4 0 12 -39 -6 -51 -22 -3 -5 -9 1 -12 12 -4 16 13 40 76 106 79 83 108
105 87 66z m50 -25 c0 -3 -4 -8 -10 -11 -5 -3 -10 -1 -10 4 0 6 5 11 10 11 6
0 10 -2 10 -4z m70 -100 c0 -2 -8 -10 -17 -17 -16 -13 -17 -12 -4 4 13 16 21
21 21 13z m-45 -26 c-3 -5 -12 -10 -18 -10 -7 0 -6 4 3 10 19 12 23 12 15 0z
m-45 -28 c0 -4 -10 -13 -22 -21 -23 -14 -23 -14 -4 8 20 22 26 25 26 13z
m-205 -42 c4 -6 1 -9 -7 -8 -7 2 -12 -2 -11 -9 2 -7 -4 -10 -12 -6 -12 4 -13
9 -4 19 14 17 25 18 34 4z m135 -6 c0 -2 -9 -4 -20 -4 -11 0 -20 4 -20 9 0 5
9 7 20 4 11 -3 20 -7 20 -9z m-72 -25 c-7 -13 -21 -32 -32 -43 -18 -21 -18
-21 -6 4 21 41 42 71 47 66 2 -2 -2 -14 -9 -27z m2 -53 c0 -3 -4 -8 -10 -11
-5 -3 -10 -1 -10 4 0 6 5 11 10 11 6 0 10 -2 10 -4z"/>
<path d="M5880 6511 c0 -4 -12 -20 -26 -35 -21 -20 -23 -26 -10 -26 9 0 16 4
16 10 0 5 10 10 23 10 43 0 55 3 50 16 -3 9 -11 10 -30 3 -33 -12 -38 -11 -23
6 7 8 16 13 20 10 5 -3 11 -1 15 5 3 5 -3 10 -14 10 -12 0 -21 -4 -21 -9z"/>
<path d="M6813 6630 c-30 -12 -29 -20 0 -20 14 0 24 6 24 15 0 8 -1 15 -1 14
-1 0 -11 -4 -23 -9z"/>
<path d="M5742 6617 c9 -7 24 -17 34 -22 16 -10 16 -12 -1 -28 -13 -13 -20
-15 -30 -7 -11 9 -12 7 -8 -9 7 -27 15 -26 40 2 36 40 36 46 -3 62 -44 18 -55
19 -32 2z"/>
<path d="M5755 6579 c-11 -17 1 -21 15 -4 8 9 8 15 2 15 -6 0 -14 -5 -17 -11z"/>
<path d="M6646 6474 c-11 -8 -16 -14 -10 -14 13 0 39 18 34 24 -3 2 -14 -2
-24 -10z"/>
<path d="M6258 6409 c-21 -43 -246 -279 -261 -274 -7 3 -20 -7 -31 -21 l-19
-26 41 -41 41 -41 26 24 c14 13 23 29 21 36 -6 16 212 254 233 254 21 0 41 19
41 40 0 15 -58 80 -72 80 -3 0 -12 -14 -20 -31z"/>
<path d="M6130 6051 c-19 -16 -32 -33 -28 -37 4 -4 10 1 14 10 3 9 11 16 18
16 6 0 17 9 24 20 16 26 14 25 -28 -9z"/>
<path d="M6104 5989 c-19 -22 -19 -22 4 -10 12 6 22 16 22 21 0 15 -5 12 -26
-11z"/>
<path d="M6085 5962 c-30 -5 -30 -5 -5 -12 14 -4 24 -12 23 -18 -2 -7 2 -12 7
-12 6 0 10 11 10 25 0 14 -1 24 -2 24 -2 -1 -16 -4 -33 -7z"/>
<path d="M5988 5868 c-10 -10 -14 -18 -9 -18 10 0 36 29 30 34 -2 1 -12 -6
-21 -16z"/>
<path d="M6020 5880 c0 -5 7 -10 16 -10 8 0 12 5 9 10 -3 6 -10 10 -16 10 -5
0 -9 -4 -9 -10z"/>
<path d="M5940 5860 c-9 -6 -10 -10 -3 -10 6 0 15 5 18 10 8 12 4 12 -15 0z"/>
<path d="M5425 6160 c-3 -5 -1 -10 4 -10 6 0 11 5 11 10 0 6 -2 10 -4 10 -3 0
-8 -4 -11 -10z"/>
<path d="M5720 5730 c0 -5 5 -10 10 -10 6 0 10 5 10 10 0 6 -4 10 -10 10 -5 0
-10 -4 -10 -10z"/>
<path d="M5665 5710 c-3 -6 1 -7 9 -4 18 7 21 14 7 14 -6 0 -13 -4 -16 -10z"/>
<path d="M5690 5680 c0 -5 -8 -10 -17 -11 -12 -1 -9 -4 7 -9 l25 -7 -25 -11
c-14 -6 -18 -11 -10 -11 9 -1 25 6 36 14 12 8 25 11 30 7 5 -4 0 3 -10 16 -20
23 -36 29 -36 12z"/>
<path d="M1725 3050 c3 -5 8 -10 11 -10 2 0 4 5 4 10 0 6 -5 10 -11 10 -5 0
-7 -4 -4 -10z"/>
<path d="M2095 2840 c3 -5 8 -10 11 -10 2 0 4 5 4 10 0 6 -5 10 -11 10 -5 0
-7 -4 -4 -10z"/>
</g>
</svg>
